<svg width="845" height="555" viewBox="0 0 845 555" fill="none" xmlns="http://www.w3.org/2000/svg">
<path d="M250.879 226.383C248.96 224.066 246.224 223.575 243.363 223.598C240.307 223.622 240.307 223.616 238.199 221.365C238.909 221.175 240.42 222.514 239.81 220.05C238.897 216.389 236.765 214.41 233.158 214.066C228.758 213.64 225.098 215.305 222.107 218.006C219.323 220.518 216.575 220.316 213.525 219.422C210.291 218.474 207.17 219.819 206.684 223.012C206.317 225.417 205.908 228.095 207.78 230.571C205.784 230.559 204.493 232.088 202.728 232.491C201.33 228.042 199.014 226.726 194.555 227.739C191.185 228.504 189.284 231.211 187.003 233.409C186.026 234.357 185.321 235.02 183.556 234.416C180.263 233.29 176.846 235.228 175.466 238.403C173.991 241.803 174.252 245.174 176.017 248.361C176.739 249.665 176.852 250.115 175.354 251.092C168.181 255.773 162.786 262.005 159.7 270.115C158.563 273.095 158.818 276.999 160.417 278.367C162.792 280.399 166.085 280.216 169.472 278.225C171.048 277.295 172.096 275.927 173.375 274.754C173.571 274.576 173.239 273.829 173.932 274.203C174.246 274.369 174.572 274.641 174.258 275.121C172.564 277.751 173.31 280.494 174.021 283.178C174.738 285.873 176.58 287.141 179.405 286.928C181.886 286.738 183.858 285.547 185.191 283.551C188.058 279.256 189.485 274.457 189.479 269.019C193.116 270.79 196.545 271.3 199.24 267.87C201.934 264.44 200.685 260.885 199.109 257.301C202.527 257.502 205.843 257.55 208.313 254.694C208.674 254.274 209.065 254.428 209.575 254.724C212.554 256.46 215.296 255.814 217.677 253.563C219.951 251.412 222.699 251.045 225.524 251.478C229.279 252.052 231.228 251.501 232.862 248.397C233.573 247.052 233.934 247.111 234.87 248.047C237.18 250.358 240.035 250.079 242.723 249.179C245.472 248.261 246.419 245.642 246.745 243.059C247.189 239.546 248.243 236.442 250.559 233.681C252.685 231.14 252.745 228.616 250.885 226.377L250.879 226.383ZM184.243 238.207C186.447 238.776 188.081 237.645 189.378 236.004C191.007 233.936 192.772 232.111 195.242 230.98C196.669 230.328 197.806 230.856 198.701 231.596C199.648 232.378 199.352 233.581 198.718 234.647C197.22 237.147 195.485 238.835 192.186 239.102C187.394 239.493 184.593 243.284 181.697 246.655C181.199 247.236 180.761 247.858 180.145 248.658C178.919 246.56 178.031 244.973 178.096 242.887C178.232 238.338 179.837 237.07 184.238 238.213L184.243 238.207ZM184.658 277.396C183.823 279.392 182.627 281.069 181.093 282.585C180.169 283.498 179.103 283.622 178.143 283.29C177.243 282.982 177.018 281.922 176.947 280.909C176.633 276.395 177.474 272.106 179.334 268.006C179.772 267.046 180.518 266.098 179.103 265.34C179.091 265.34 179.085 265.34 179.073 265.34C179.263 265.731 179.197 266.252 178.777 266.152C175.59 265.37 174.471 267.982 173.204 269.807C171.581 272.141 169.484 273.912 167.429 275.755C166.262 276.803 164.663 276.501 163.396 275.95C162.051 275.37 161.755 273.847 162.229 272.645C165.475 264.446 171.166 258.261 178.356 253.13C179.73 257.71 179.689 261.738 176.029 265.151C177.273 265.802 178.161 265.784 179.073 265.346C179.073 265.334 179.067 265.328 179.061 265.316C179.079 265.322 179.091 265.334 179.103 265.34C181.845 265.151 181.863 262.574 182.792 260.897C183.219 260.133 183.325 259.173 184.19 258.231C186.103 264.789 187.335 271.021 184.658 277.396ZM185.487 246.472C186.553 246.395 187.282 245.121 188.715 245.719C187.821 247.206 186.589 246.513 185.487 246.472ZM195.271 266.786C193.003 267.905 191.41 266.306 190.237 264.854C188.751 263.018 188.484 260.518 187.72 258.296C187.566 257.858 191.576 254.991 192.547 255.002C192.736 255.162 193.169 255.417 193.429 255.784C194.732 257.651 196.255 259.357 197.096 261.543C197.99 263.871 197.522 265.684 195.277 266.792L195.271 266.786ZM203.658 253.77C200.466 254.677 197.611 253.474 194.33 252.1C196.089 250.773 196.622 249.025 196.936 247.431C197.279 245.696 198.256 245.82 199.168 246.264C201.212 247.26 203.403 248.083 204.866 250.02C206.175 251.762 205.766 253.172 203.658 253.764V253.77ZM210.273 237.959C206.998 241.116 202.716 241.661 198.564 242.497C197.54 242.704 197.481 242.034 198.079 241.258C200.738 237.787 204.428 235.565 208.112 233.456C208.55 233.201 211.576 232.686 211.801 235.494C211.47 236.258 211.073 237.194 210.279 237.959H210.273ZM231.636 233.711C230.357 234.712 228.841 235.287 227.289 235.719C224.298 236.549 221.295 237.313 218.293 238.107C218.269 238.012 218.245 237.911 218.222 237.816C217.925 237.816 217.629 237.81 217.339 237.816C215.882 237.87 215.325 236.661 214.905 235.707C214.449 234.671 215.858 234.724 216.368 234.274C219.53 231.495 223.451 230.31 227.485 229.576C229.131 229.274 230.665 230.239 231.992 231.087C233.277 231.904 232.572 232.982 231.636 233.711ZM234.005 222.153C235.083 222.135 235.812 220.856 237.263 221.46C236.339 222.87 235.154 222.402 234.005 222.153Z" fill="#FFA5A6"/>
<path d="M639.485 275.913C636.85 274.159 634.031 274.752 630.98 275.326C632.674 271.043 633.699 266.991 632.337 262.726C631.448 259.941 630.181 257.406 627.225 256.328C625.212 255.593 623.737 256.179 621.587 257.24C617.506 259.254 616.275 262.329 615.137 266.02C614.687 267.477 614.764 269.147 613.627 270.534C610.399 267.198 606.745 262.98 602.208 265.865C595.753 269.977 599.407 275.261 602.747 280.001C601.373 279.639 600.36 279.165 599.336 278.733C597.008 277.743 593.218 278.425 591.79 280.066C589.871 282.264 589.996 284.758 591.678 287.738C592.821 289.758 594.959 290.889 596.138 293.081C588.101 290.593 584.126 295.332 584.417 301.695C584.612 305.948 587.094 308.804 590.582 310.854C594.965 313.431 599.703 314.752 605.027 314.379C603.754 317.323 602.125 319.799 600.082 322.121C599.383 321.179 598.892 320.326 598.216 319.663C597.488 318.952 596.967 317.619 595.67 317.992C594.319 318.383 594.041 319.55 593.798 320.931C592.797 326.553 593.283 332.139 593.686 338.051C590.464 335.178 587.822 332.121 585.441 328.804C584.766 327.868 583.475 327.536 585.27 325.954C586.709 324.687 587.68 322.341 587.425 319.906C587.301 318.721 587.248 317.862 585.88 317.72C586.875 317.364 587.603 316.967 587.396 315.593C586.697 310.948 585.015 306.796 581.87 303.259C580.839 302.098 579.329 301.896 578.168 302.157C577.179 302.376 576.948 303.887 576.658 305.06C575.912 308.057 576.267 311.126 575.77 314.213C572.435 307.945 568.763 301.908 566.815 294.858C569.018 295.143 570.433 293.964 571.636 292.512C575.426 287.951 576.664 282.589 576.048 276.825C575.864 275.095 574.709 274.094 572.702 275.267C571.647 275.883 570.842 276.642 570.208 277.631C568.337 280.569 566.477 283.52 564.546 286.588C563.907 285.22 565.079 283.034 562.657 283.051C558.446 283.081 562.811 286.713 560.714 287.797C557.706 285.38 553.968 284.379 550.569 282.702C549.035 281.944 547.525 282.743 547.217 284.355C546.938 285.8 546.784 287.424 547.679 288.899C550.77 294.017 555.035 297.228 561.224 297.198C562.947 297.192 564.333 297.234 564.848 299.29C566.039 304.053 568.769 308.146 570.741 312.572C571.399 314.041 572.175 314.698 573.732 314.438C573.827 314.42 573.957 314.61 574.218 314.823C573.442 314.935 572.796 315.03 572.169 315.125C572.175 315.948 573.495 316.162 573.027 317.163C572.66 317.382 572.376 317.228 571.985 317.098C568.615 316.02 565.227 314.924 561.626 315.006C559.524 315.054 558.393 316.298 559.139 318.253C560.471 321.736 562.651 324.764 566.057 326.476C570.09 328.502 574.33 329.894 578.974 328.644C580.158 328.324 581.047 328.863 581.752 329.811C584.156 333.034 586.685 336.15 590.156 339.367C584.369 338.863 579.465 339.817 574.621 341.079C573.566 341.351 572.198 341.535 572.015 342.974C571.831 344.42 572.37 345.7 573.726 346.333C574.579 346.73 575.337 347.281 576.208 347.672C582.794 350.634 589.492 349.995 596.244 348.709C597.5 348.472 598.418 347.234 599.827 347.305C602.153 347.42 602.795 346.446 601.752 344.384C601.515 343.91 601.557 343.496 601.729 343.016C603.541 337.998 603.002 332.88 602.078 327.82C601.829 326.464 601.954 325.599 602.723 324.55C604.731 321.801 606.627 318.97 608.575 316.168C613.112 321.488 618.312 325.172 625.703 324.497C630.702 324.041 635.582 320.238 635.434 314.74C635.298 309.71 632.982 306.535 628.907 304.005C632.159 303.093 635.458 302.933 638.259 300.865C640.575 299.159 640.273 296.908 639.906 294.864C639.604 293.182 637.797 292.501 635.997 292.506C633.888 292.512 631.774 292.506 628.872 292.506C632.39 290.042 635.979 289.183 638.449 286.576C638.84 286.162 639.562 285.919 639.391 285.255C639.213 284.568 638.686 284.864 638.23 285.089C637.543 285.433 637.714 284.787 637.709 284.533C637.709 284.266 637.578 283.579 638.176 283.887C640.018 284.835 641.025 283.525 641.12 282.281C641.292 280.083 641.985 277.572 639.491 275.919L639.485 275.913ZM552.754 288.105C553.773 288.04 554.578 286.665 555.864 287.394C555.147 288.851 553.921 288.265 552.754 288.105ZM633.652 301.079C633.557 301.008 633.652 300.433 633.788 300.362C634.469 300.018 635.103 300.137 635.766 301.102C635.002 301.505 634.303 301.57 633.652 301.079ZM637.756 281.493C637.43 282.489 635.653 283.235 636.998 284.764C637.371 285.19 636.506 285.309 636.038 285.397C631.91 286.174 628.44 288.235 625.306 290.948C624.3 291.813 624.454 292.986 624.803 293.922C625.17 294.918 626.059 295.546 627.356 295.486C629.719 295.386 632.094 295.546 634.451 295.421C635.647 295.356 636.483 295.966 636.802 296.79C637.081 297.495 636.032 298.034 635.464 298.496C633.527 300.06 631.105 300.119 628.795 300.498C627.148 300.771 625.301 300.942 624.809 302.844C624.288 304.852 625.857 306.126 627.237 307.104C629.245 308.531 631.046 309.959 631.78 312.471C632.722 315.67 631.596 318.638 628.7 320.119C623.903 322.566 619.639 321.091 615.736 318.129C614.492 317.187 613.165 316.31 612.223 314.835C610.494 312.133 610.808 309.556 613.663 307.986C617.412 305.925 620.432 302.939 623.69 300.255C624.465 299.615 625.235 298.804 624.276 297.803C623.417 296.902 622.464 297.062 621.421 297.779C619.55 299.059 618.146 301.002 615.522 301.973C616.997 297.281 618.644 293.2 619.502 288.964C620.278 285.143 621.504 281.428 622.037 277.566C622.108 277.05 622.002 275.984 620.882 275.919C619.923 275.865 619.159 276.019 618.738 277.033C618.045 278.703 618.401 280.646 616.962 282.868C615.741 281.399 614.729 279.929 613.455 278.739C612.822 278.146 611.602 277.459 610.796 278.318C609.979 279.183 610.275 280.32 611.217 281.156C611.365 281.286 611.489 281.446 611.655 281.553C616.885 284.817 616.34 289.313 614.61 294.284C612.739 299.675 610.559 304.929 608.012 310.018C607.242 311.559 605.104 311.452 603.76 311.339C598.364 310.877 593.123 309.657 589.297 305.356C587.354 303.176 587.437 300.54 588.539 298.04C589.433 296.002 590.89 294.959 593.389 295.972C594.846 296.565 596.374 297.163 598.045 297.311C599.271 297.424 600.254 297.696 601.03 296.393C601.752 295.184 601.894 294.088 601.065 292.897C599.851 291.15 598.684 289.349 596.712 288.342C595.089 287.512 594.769 285.771 593.958 284.396C593.496 283.614 594.142 282.886 594.805 282.412C595.8 281.689 596.961 281.144 598.11 281.873C600.283 283.253 602.327 284.841 604.506 286.209C605.685 286.95 606.964 287.927 608.427 286.553C609.736 285.326 609.742 283.579 608.936 282.554C607.722 281.02 607.924 278.028 604.891 278.14C604.791 278.14 604.536 277.666 604.583 277.471C605.3 274.45 599.94 272.317 603.339 268.916C604.512 267.749 605.59 268.057 606.786 268.952C609.517 270.996 612.034 273.259 613.846 276.174C614.456 277.157 615.203 277.945 616.227 277.418C617.198 276.92 617.352 276.02 617.305 274.592C617.121 269.373 618.223 264.331 622.156 260.433C623.24 259.355 624.88 258.756 626.159 259.544C628.084 260.735 629.138 262.726 629.405 265.072C629.997 270.243 627.954 274.687 625.407 278.893C624.762 279.965 624.75 280.67 625.324 281.381C626.053 282.281 626.917 281.867 627.859 281.351C630.323 280.001 632.473 277.874 635.677 278.271C637.78 278.531 638.502 279.296 637.774 281.499L637.756 281.493Z" fill="#FFA5A6"/>
<path d="M256.844 276.083C259.722 275.236 261.481 276.438 263.199 278.316C265.645 280.994 268.553 283.156 271.97 284.637C268.713 280.313 265.455 276.029 263.086 271.172C262.506 269.981 261.92 268.76 261.629 267.481C261.416 266.545 261.156 265.23 262.731 264.975C263.921 264.779 264.591 265.532 264.911 266.533C266.456 271.326 269.477 275.224 272.385 279.353C273.623 277.493 272.053 275.97 272.142 274.311C272.231 272.724 271.876 271.035 271.348 269.519C270.934 268.328 271.135 267.196 271.046 266.047C270.981 265.224 270.981 264.11 272.189 264.418C273.137 264.655 274.736 264.057 274.653 266.296C274.464 271.515 276.116 276.497 277.135 282.25C278.746 276.74 280.09 271.894 279.918 266.77C279.877 265.508 279.64 264.003 281.63 264.057C283.377 264.104 283.478 265.526 283.431 266.734C283.229 271.924 282.246 276.983 280.677 281.93C280.534 282.374 280.558 282.866 280.452 283.778C289.608 276.657 294.085 267.599 294.719 256.48C294.808 254.892 294.281 254.43 292.753 254.548C289.608 254.797 286.534 253.707 283.271 254.43C281.47 254.827 280.558 255.247 280.132 256.995C279.705 258.743 279.107 260.449 278.473 262.137C278.231 262.783 278.071 263.672 276.916 263.482C276.075 263.34 275.328 263.559 274.878 262.38C274.304 260.875 273.866 259.305 273.214 257.86C272.48 256.231 274.333 257.386 274.227 256.385C268.109 256.142 262.186 257.558 256.252 258.778C254.712 259.092 255.055 260.36 255.263 261.616C256.056 266.45 257.519 271.012 260.35 275.17C255.979 275.425 254.735 274.323 253.308 268.719C252.503 265.55 251.94 262.345 252.005 259.003C252.041 257.137 252.822 256.243 254.297 255.822C258.727 254.578 263.234 253.725 267.83 253.405C268.417 253.364 269.045 253.512 269.601 253.375C274.588 252.108 274.47 252.777 276.815 257.036C276.756 254.963 277.443 253.316 278.586 252.202C279.824 250.994 281.713 250.946 283.484 251.023C287.375 251.189 291.254 250.929 295.169 251.509C297.367 251.835 298.178 252.89 298.184 254.59C298.196 263.435 295.809 271.551 290.425 278.683C287.541 282.504 284.337 285.923 279.77 287.747C278.426 288.287 278.539 289.501 278.758 290.496C279.462 293.642 280.072 296.853 281.571 299.726C282.459 301.432 282.447 302.54 280.493 303.269C281.245 304.211 282.637 302.279 283.146 304.199C283.715 306.349 285.853 308.055 285.042 310.603C284.87 311.136 284.313 311.486 283.62 311.403C282.726 311.29 282.11 310.632 281.861 309.987C279.557 303.974 276.702 298.138 275.731 291.669C275.518 290.23 275.109 289.181 273.131 288.701C265.917 286.954 261.262 281.717 256.838 276.112L256.844 276.083Z" fill="#FFA5A6"/>
<path d="M325.704 299.536C322.944 300.786 321.736 303.268 320.19 306.094C319.486 302.361 318.668 298.937 316.957 295.857C315.997 294.133 314.445 292.717 312.242 293.049C310.14 293.363 308.908 294.595 307.99 296.763C306.479 300.341 306.912 303.795 307.865 307.172C309.749 313.848 312.509 320.211 315.707 326.366C317.122 329.091 319.183 329.299 321.511 327.308C324.022 325.158 325.408 322.261 326.835 319.464C329.43 314.37 331.852 309.139 331.793 303.214C331.757 299.476 329.133 297.977 325.704 299.536ZM320.409 321.893C321.677 321.153 322.5 321.502 323.081 321.893H320.409ZM324.52 306.834C325.87 306.603 326.67 306.39 327.505 306.947C326.616 307.332 325.805 307.314 324.52 306.834Z" fill="#FFA5A6"/>
<path d="M286.172 220.731C286.231 226.661 284.573 227.68 279.722 225.263C275.902 223.361 271.886 221.898 268.262 219.558C265.075 217.502 263.387 215.209 264.205 213.148C265.194 210.654 268.238 209.724 272.005 210.755C272.733 210.956 273.568 210.932 274.208 211.288C275.843 212.2 275.582 211.074 275.446 210.192C275.049 207.709 275.446 205.423 276.553 203.142C277.305 201.584 278.449 201.11 279.953 201.009C281.611 200.897 282.583 201.821 283.21 203.231C284.833 206.868 285.07 210.814 285.514 214.676C285.763 216.874 285.692 219.119 286.178 220.731H286.172Z" fill="#FFA5A6"/>
<path d="M252.684 329.335C255.627 329.572 258.233 330.277 260.661 331.77C263.344 333.423 264.801 335.929 263.67 338.162C262.426 340.627 259.885 341.053 257.522 340.621C252.838 339.774 248.046 339.365 243.521 337.742C239.334 336.243 237.806 336.853 239.997 331.847C241.904 327.487 244.131 323.234 247.359 319.596C249.112 317.623 251.351 317.706 253.181 318.625C255.153 319.62 255.396 321.871 254.81 324.016C254.312 325.84 253.791 327.665 252.678 329.324L252.684 329.335Z" fill="#FFA5A6"/>
<path d="M671.892 263.945C671.36 261.04 671.366 258.34 672.18 255.608C673.082 252.589 675.125 250.533 677.575 251.048C680.278 251.611 681.347 253.955 681.541 256.35C681.935 261.094 682.781 265.828 682.384 270.619C682.02 275.051 683.005 276.37 677.602 275.548C672.897 274.835 668.212 273.785 663.863 271.608C661.504 270.426 661.005 268.242 661.418 266.236C661.869 264.074 663.98 263.256 666.204 263.268C668.095 263.276 669.992 263.307 671.883 263.953L671.892 263.945Z" fill="#FFA5A6"/>
<path d="M569.846 207.255C570.74 206.117 572.043 205.134 573.429 204.222C574.382 203.594 574.613 202.486 574.068 201.633C573.541 200.809 572.457 200.857 571.616 201.39C570.083 202.367 568.371 203.126 567.192 204.577C566.476 205.46 565.528 205.744 564.575 205.412C560.636 204.026 556.668 204.139 552.634 204.873C549.685 205.412 547.245 207.705 548.352 209.482C550.135 212.332 548.358 214.619 548.015 217.101C547.654 219.672 546.759 222.202 547.061 224.82C548.009 232.984 552.149 237.083 560.541 233.066C564.219 231.307 567.4 228.807 570.183 225.821C571.504 224.405 572.777 222.96 574.939 222.859C576.781 222.776 577.284 221.769 577.255 219.939C577.166 214.287 573.304 211.076 569.84 207.267L569.846 207.255ZM569.585 220.282C568.803 224.358 564.959 225.501 562.466 227.895C561.216 229.097 559.416 229.773 557.787 230.519C554.097 232.213 551.053 230.412 550.603 226.283C550.147 222.077 550.881 217.972 552.522 214.157C553.481 211.917 555.353 210.223 558.255 210.318C558.231 211.627 557.319 211.645 556.97 211.704C555.229 212 553.849 213.108 553.807 214.577C553.772 215.857 555.72 216.135 556.798 216.864C557.923 217.622 558.314 217.065 558.859 216.277C559.629 215.17 560.458 214.109 561.732 212.403C561.749 214.482 560.968 215.258 560.363 216.189C559.777 217.095 558.575 218.262 560.671 219.133C562.134 219.737 563.147 220.152 563.656 218.066C563.899 217.065 564.545 216.07 565.676 215.371C566.233 216.947 565.108 217.942 564.669 218.908C563.959 220.46 564.604 220.851 565.718 221.431C567.559 222.397 568.389 222.036 568.371 219.832C568.365 218.73 567.844 217.48 568.88 216.491C569.182 216.206 569.378 216.313 569.555 216.52C570.633 217.776 569.834 218.979 569.579 220.288L569.585 220.282Z" fill="#FFA5A6"/>
<path d="M578.801 239.423C578.516 238.706 577.586 238.244 577.118 238.676C575.052 240.596 573.287 238.973 571.409 238.422C569.769 237.942 568.152 237.391 566.381 237.409C561.121 237.456 559.83 238.919 560.434 244.186C560.482 244.583 559.747 245.08 559.345 245.507C559.013 245.862 558.367 245.608 558.433 245.442C559.049 243.884 558.208 244.298 557.657 244.92C553.943 249.103 554.701 254.695 559.084 256.834C561.874 258.191 564.865 258.037 567.666 257.438C570.254 256.887 573.488 257.503 575.182 254.541C576.852 251.621 577.681 248.404 577.071 245.128C576.787 243.582 576.384 242.687 578.149 241.982C579.251 241.538 579.168 240.383 578.789 239.423H578.801ZM561.329 254.061C558.492 252.61 558.012 248.884 560.44 246.781C561.27 246.064 561.548 247.237 562.152 247.053C561.299 248.73 562.963 249.5 563.532 250.614C564.166 251.858 565.173 252.906 566.327 254.458C564.308 254.541 562.845 254.832 561.329 254.056V254.061ZM570.621 245.904C570.846 243.226 572.28 242.604 574.98 242.118C573.245 243.623 572.132 244.589 570.621 245.904Z" fill="#FFA5A6"/>
<path d="M234.521 273.015C234.237 272.298 233.307 271.836 232.839 272.268C230.772 274.188 229.007 272.564 227.13 272.013C225.489 271.534 223.872 270.983 222.101 271C216.842 271.048 215.551 272.511 216.155 277.778C216.203 278.175 215.468 278.672 215.065 279.099C214.734 279.454 214.088 279.199 214.153 279.034C214.769 277.476 213.928 277.89 213.377 278.512C209.664 282.695 210.422 288.287 214.805 290.426C217.594 291.782 220.585 291.628 223.387 291.03C225.975 290.479 229.209 291.095 230.902 288.133C232.573 285.213 233.402 281.996 232.792 278.72C232.508 277.173 232.105 276.279 233.87 275.574C234.971 275.13 234.888 273.974 234.509 273.015H234.521ZM217.049 287.653C214.213 286.202 213.733 282.476 216.161 280.372C216.99 279.656 217.269 280.829 217.873 280.645C217.02 282.322 218.684 283.092 219.253 284.205C219.886 285.449 220.893 286.498 222.048 288.05C220.029 288.133 218.566 288.423 217.049 287.647V287.653ZM226.342 279.496C226.567 276.818 228 276.196 230.701 275.71C228.966 277.215 227.852 278.181 226.342 279.496Z" fill="#FFA5A6"/>
<path d="M647.813 196.728C647.067 195.993 647.327 195.282 647.374 194.613C647.576 191.805 646.267 190.181 643.809 188.967C642.145 188.144 640.374 187.587 638.686 187.444C632.805 186.935 626.953 187.095 622.049 191.301C621.552 190.59 621.119 189.838 620.563 189.198C617.649 185.833 611.229 185.01 606.39 187.273C603.784 188.493 601.735 190.537 602.534 193.274C603.417 196.313 602.303 196.905 599.869 197.125C599.395 197.166 598.868 197.142 598.465 197.344C596.819 198.167 594.628 198.327 594.106 200.62C593.544 203.114 595.32 204.317 596.937 205.584C600.076 208.043 603.79 209.619 606.941 212.083C609.055 213.736 611.584 214.933 614.077 215.448C616.642 215.975 616.014 217.077 615.7 218.629C614.243 225.946 611.537 232.812 608.25 239.465C607.628 240.726 607.148 242.006 608.599 242.729C609.949 243.404 610.719 242.166 611.235 241.088C614.699 233.884 617.886 226.585 618.952 218.558C619.1 217.45 619.206 216.343 620.859 216.206C624.116 215.94 627.386 215.626 630.59 215.021C636.193 213.967 641.671 212.569 646.504 209.204C652.361 205.116 652.853 201.686 647.813 196.716V196.728ZM597.571 201.799C599.2 200.235 601.308 200.59 602.972 199.725C603.5 199.453 604.175 199.749 604.471 200.341C605.804 202.984 607.095 205.638 607.894 208.677C604.477 206.396 601.054 204.121 597.571 201.799ZM624.448 205.051C623.838 204.796 623.169 205.454 620.409 208.973C619.479 207.978 620.782 207.279 620.746 206.39C620.705 205.407 620.533 204.619 619.426 204.441C618.49 204.287 617.738 204.453 617.465 205.578C617.151 206.864 616.719 208.12 616.275 209.589C615.961 208.452 615.493 207.456 615.446 206.437C615.38 205.045 614.735 203.943 613.521 203.943C612.129 203.943 611.572 205.193 611.892 207.237C609.523 203.132 607.503 199.619 606.52 195.632C605.395 191.07 606.212 190.039 610.867 189.607C614.137 189.305 617.139 189.944 619.763 192.065C619.674 192.29 618.359 191.751 618.608 192.409C619.603 195.057 618.437 197.557 618.36 200.116C618.324 201.177 618.146 202.462 619.668 202.593C620.906 202.699 621.558 201.769 621.895 200.673C622.144 199.862 622.428 199.044 622.559 198.209C623.269 193.789 626.207 191.615 630.299 191.046C633.847 190.549 637.507 190.306 641.002 191.485C644.443 192.64 644.887 194.749 642.334 197.296C637.33 202.29 631.182 205.614 625.236 209.216C624.057 207.883 626.811 206.035 624.448 205.051ZM647.771 203.007C647.155 204.317 646.178 205.3 645 206.236C640.978 209.435 636.127 210.383 631.342 211.42C630.288 211.651 629.228 212.51 627.901 211.935C632.047 208.819 636.702 206.58 640.688 203.321C641.819 202.397 642.844 201.384 643.91 200.407C644.715 199.672 645.373 198.843 646.516 199.761C647.552 200.596 648.441 201.568 647.771 203.001V203.007Z" fill="#FFA5A6"/>
</svg>
