<?xml version="1.0" encoding="UTF-8"?>
<svg id="Layer_1" data-name="Layer 1" xmlns="http://www.w3.org/2000/svg" viewBox="0 0 1155 485">
  <defs>
    <style>
      .cls-1 {
        fill: #ffa5a6;
      }
    </style>
  </defs>
  <path class="cls-1" d="M269.65,137c-1.92-2.32-4.65-2.81-7.51-2.78q-3.06.02-5.17-2.23c.71-.19,2.22,1.15,1.61-1.32-.91-3.66-3.04-5.64-6.65-5.98-4.4-.43-8.06,1.24-11.05,3.94-2.78,2.51-5.53,2.31-8.58,1.42-3.23-.95-6.35.4-6.84,3.59-.37,2.4-.78,5.08,1.1,7.56-2-.01-3.29,1.52-5.05,1.92-1.4-4.45-3.71-5.76-8.17-4.75-3.37.76-5.27,3.47-7.55,5.67-.98.95-1.68,1.61-3.45,1.01-3.29-1.12-6.71.81-8.09,3.99-1.48,3.4-1.21,6.77.55,9.96.72,1.3.84,1.75-.66,2.73-7.17,4.68-12.57,10.91-15.65,19.02-1.14,2.98-.88,6.88.72,8.25,2.38,2.03,5.67,1.85,9.06-.14,1.57-.93,2.62-2.3,3.9-3.47.2-.18-.14-.92.56-.55.31.17.64.44.32.92-1.69,2.63-.95,5.37-.24,8.06.72,2.7,2.56,3.96,5.38,3.75,2.48-.19,4.45-1.38,5.79-3.38,2.87-4.29,4.29-9.09,4.29-14.53,3.64,1.77,7.07,2.28,9.76-1.15,2.7-3.43,1.45-6.99-.13-10.57,3.42.2,6.73.25,9.2-2.61.36-.42.75-.27,1.26.03,2.98,1.74,5.72,1.09,8.1-1.16,2.27-2.15,5.02-2.52,7.85-2.08,3.76.57,5.7.02,7.34-3.08.71-1.35,1.07-1.28,2.01-.35,2.31,2.31,5.16,2.03,7.85,1.13,2.75-.92,3.7-3.54,4.02-6.12.44-3.51,1.5-6.62,3.81-9.38,2.13-2.54,2.19-5.07.33-7.3h0ZM203.01,148.82c2.2.57,3.84-.56,5.13-2.2,1.63-2.07,3.39-3.89,5.86-5.02,1.43-.65,2.57-.12,3.46.62.95.78.65,1.99.02,3.05-1.5,2.5-3.23,4.19-6.53,4.46-4.79.39-7.59,4.18-10.49,7.55-.5.58-.94,1.2-1.55,2-1.22-2.1-2.11-3.68-2.05-5.77.14-4.55,1.74-5.82,6.14-4.67h0ZM203.43,188.01c-.84,2-2.03,3.67-3.57,5.19-.92.91-1.99,1.04-2.95.71-.9-.31-1.13-1.37-1.2-2.38-.31-4.51.53-8.8,2.39-12.9.44-.96,1.18-1.91-.23-2.67h-.03c.19.39.12.91-.3.81-3.19-.78-4.3,1.83-5.57,3.65-1.62,2.33-3.72,4.11-5.77,5.95-1.17,1.05-2.77.75-4.03.2-1.34-.58-1.64-2.1-1.17-3.31,3.24-8.2,8.94-14.38,16.13-19.51,1.37,4.58,1.33,8.61-2.33,12.02,1.24.65,2.13.63,3.04.19,0-.01,0-.02-.01-.03.02,0,.03.02.04.02,2.74-.19,2.76-2.77,3.69-4.44.43-.76.53-1.72,1.4-2.67,1.91,6.56,3.15,12.79.47,19.17ZM204.26,157.09c1.07-.08,1.79-1.35,3.23-.75-.89,1.49-2.13.79-3.23.75ZM214.04,177.4c-2.27,1.12-3.86-.48-5.03-1.93-1.49-1.84-1.75-4.34-2.52-6.56-.15-.44,3.85-3.31,4.83-3.29.19.16.62.41.88.78,1.3,1.87,2.82,3.57,3.67,5.76.89,2.33.43,4.14-1.82,5.25h0ZM222.43,164.38c-3.19.91-6.05-.3-9.33-1.67,1.76-1.33,2.29-3.07,2.61-4.67.34-1.74,1.32-1.61,2.23-1.17,2.04.99,4.24,1.82,5.7,3.75,1.31,1.74.9,3.15-1.21,3.75h0ZM229.04,148.57c-3.28,3.16-7.56,3.7-11.71,4.54-1.03.21-1.08-.46-.49-1.24,2.66-3.47,6.35-5.69,10.03-7.8.44-.26,3.46-.77,3.69,2.04-.33.76-.73,1.7-1.52,2.47h0ZM250.41,144.32c-1.28,1-2.8,1.58-4.35,2.01-2.99.83-5.99,1.59-9,2.39-.02-.1-.05-.2-.07-.29-.3,0-.59,0-.88,0-1.46.05-2.01-1.16-2.43-2.11-.46-1.04.95-.98,1.46-1.43,3.16-2.78,7.08-3.96,11.12-4.7,1.65-.3,3.18.66,4.51,1.51,1.29.82.58,1.9-.35,2.62ZM252.78,132.77c1.08-.02,1.81-1.3,3.26-.69-.92,1.41-2.11.94-3.26.69Z"/>
  <path class="cls-1" d="M908.8,199.36c-2.64-1.75-5.45-1.16-8.51-.59,1.69-4.28,2.72-8.34,1.36-12.6-.89-2.78-2.16-5.32-5.11-6.4-2.01-.74-3.49-.15-5.64.91-4.08,2.01-5.31,5.09-6.45,8.78-.45,1.46-.37,3.13-1.51,4.51-3.23-3.34-6.88-7.55-11.42-4.67-6.46,4.11-2.8,9.39.54,14.13-1.37-.36-2.39-.84-3.41-1.27-2.33-.99-6.12-.31-7.55,1.33-1.92,2.2-1.79,4.69-.11,7.67,1.14,2.02,3.28,3.15,4.46,5.34-8.04-2.49-12.01,2.25-11.72,8.61.2,4.25,2.68,7.11,6.16,9.16,4.38,2.58,9.12,3.9,14.45,3.53-1.27,2.94-2.9,5.42-4.95,7.74-.7-.94-1.19-1.79-1.86-2.46-.73-.71-1.25-2.04-2.55-1.67-1.35.39-1.63,1.56-1.87,2.94-1,5.62-.52,11.21-.11,17.12-3.22-2.87-5.86-5.93-8.24-9.25-.67-.94-1.97-1.27-.17-2.85,1.44-1.27,2.41-3.61,2.16-6.05-.12-1.18-.18-2.04-1.55-2.19.99-.36,1.72-.75,1.52-2.13-.7-4.64-2.38-8.8-5.53-12.33-1.03-1.16-2.54-1.36-3.7-1.1-.99.22-1.22,1.73-1.51,2.9-.75,3-.39,6.07-.89,9.15-3.33-6.27-7.01-12.31-8.95-19.35,2.2.28,3.62-.9,4.82-2.35,3.79-4.56,5.03-9.92,4.41-15.69-.18-1.73-1.34-2.73-3.35-1.56-1.05.62-1.86,1.38-2.49,2.36-1.87,2.94-3.73,5.89-5.66,8.96-.64-1.37.53-3.55-1.89-3.54-4.21.03.15,3.66-1.94,4.75-3.01-2.42-6.75-3.42-10.15-5.1-1.53-.76-3.04.04-3.35,1.65-.28,1.45-.43,3.07.46,4.54,3.09,5.12,7.36,8.33,13.55,8.3,1.72,0,3.11.04,3.62,2.09,1.19,4.76,3.92,8.86,5.89,13.28.66,1.47,1.43,2.13,2.99,1.87.09-.02.23.17.48.39-.78.11-1.42.21-2.05.3,0,.82,1.33,1.04.86,2.04-.37.22-.65.07-1.04-.07-3.37-1.08-6.76-2.17-10.36-2.09-2.1.05-3.23,1.29-2.49,3.25,1.33,3.48,3.51,6.51,6.92,8.22,4.03,2.03,8.27,3.42,12.92,2.17,1.18-.32,2.07.22,2.78,1.17,2.4,3.22,4.93,6.34,8.4,9.56-5.79-.5-10.69.45-15.54,1.71-1.05.27-2.42.46-2.61,1.9-.18,1.45.36,2.73,1.71,3.36.85.4,1.61.95,2.48,1.34,6.59,2.96,13.28,2.32,20.04,1.04,1.26-.24,2.17-1.48,3.58-1.4,2.32.11,2.97-.86,1.92-2.92-.24-.47-.2-.89-.02-1.37,1.81-5.02,1.27-10.14.35-15.2-.25-1.36-.12-2.22.65-3.27,2.01-2.75,3.9-5.58,5.85-8.38,4.54,5.32,9.74,9,17.13,8.33,5-.46,9.88-4.26,9.73-9.76-.14-5.03-2.45-8.21-6.53-10.73,3.25-.91,6.55-1.07,9.35-3.14,2.32-1.71,2.01-3.96,1.65-6-.3-1.68-2.11-2.36-3.91-2.36-2.11,0-4.22,0-7.12,0,3.52-2.46,7.11-3.32,9.58-5.93.39-.42,1.11-.66.94-1.32-.18-.69-.71-.39-1.16-.17-.69.34-.52-.3-.52-.56,0-.27-.13-.95.47-.65,1.84.95,2.85-.36,2.94-1.6.17-2.2.86-4.71-1.63-6.36h0ZM822.07,211.55c1.02-.07,1.82-1.44,3.11-.71-.72,1.46-1.94.87-3.11.71ZM902.97,224.53c-.09-.07,0-.65.14-.72.68-.34,1.32-.23,1.98.74-.76.4-1.46.47-2.11-.02ZM907.07,204.94c-.33,1-2.1,1.74-.76,3.27.37.43-.49.54-.96.63-4.13.78-7.6,2.84-10.73,5.55-1.01.87-.85,2.04-.5,2.97.37,1,1.26,1.62,2.55,1.56,2.36-.1,4.74.06,7.1-.07,1.2-.07,2.03.54,2.35,1.37.28.71-.77,1.24-1.34,1.71-1.94,1.56-4.36,1.62-6.67,2-1.65.27-3.49.44-3.99,2.35-.52,2.01,1.05,3.28,2.43,4.26,2.01,1.43,3.81,2.86,4.54,5.37.94,3.2-.18,6.17-3.08,7.65-4.8,2.45-9.06.97-12.97-1.99-1.24-.94-2.57-1.82-3.51-3.29-1.73-2.7-1.42-5.28,1.44-6.85,3.75-2.06,6.77-5.05,10.03-7.73.78-.64,1.55-1.45.59-2.45-.86-.9-1.81-.74-2.85-.02-1.87,1.28-3.28,3.22-5.9,4.2,1.47-4.69,3.12-8.77,3.98-13.01.78-3.82,2-7.53,2.53-11.4.07-.51-.04-1.58-1.15-1.65-.96-.05-1.72.1-2.14,1.11-.69,1.67-.34,3.61-1.78,5.84-1.22-1.47-2.23-2.94-3.51-4.13-.63-.59-1.85-1.28-2.66-.42-.82.87-.52,2,.42,2.84.15.13.27.29.44.4,5.23,3.26,4.68,7.76,2.96,12.73-1.87,5.39-4.05,10.65-6.6,15.74-.77,1.54-2.91,1.43-4.25,1.32-5.4-.46-10.64-1.68-14.46-5.98-1.94-2.18-1.86-4.82-.76-7.32.89-2.04,2.35-3.08,4.85-2.07,1.46.59,2.99,1.19,4.66,1.34,1.23.11,2.21.39,2.98-.92.72-1.21.86-2.3.04-3.49-1.21-1.75-2.38-3.55-4.35-4.56-1.62-.83-1.94-2.57-2.75-3.95-.46-.78.18-1.51.85-1.99.99-.72,2.16-1.27,3.3-.54,2.17,1.38,4.22,2.97,6.4,4.34,1.18.74,2.46,1.72,3.92.34,1.31-1.23,1.32-2.97.51-4-1.21-1.53-1.01-4.53-4.05-4.41-.1,0-.36-.47-.31-.67.72-3.02-4.64-5.15-1.24-8.55,1.17-1.17,2.25-.86,3.45.04,2.73,2.04,5.25,4.31,7.06,7.22.61.98,1.36,1.77,2.38,1.24.97-.5,1.12-1.4,1.08-2.83-.18-5.22.92-10.26,4.85-14.16,1.08-1.08,2.72-1.68,4-.89,1.92,1.19,2.98,3.18,3.24,5.53.59,5.17-1.45,9.62-4,13.82-.65,1.07-.66,1.78-.08,2.49.73.9,1.59.49,2.53-.03,2.46-1.35,4.61-3.48,7.82-3.08,2.1.26,2.83,1.02,2.1,3.23h-.02Z"/>
  <path class="cls-1" d="M237.84,331.08c2.88-.85,4.64.35,6.36,2.23,2.45,2.68,5.35,4.84,8.77,6.32-3.26-4.32-6.51-8.61-8.88-13.46-.58-1.19-1.17-2.41-1.46-3.69-.21-.94-.47-2.25,1.1-2.51,1.19-.2,1.86.56,2.18,1.56,1.54,4.79,4.57,8.69,7.47,12.82,1.24-1.86-.33-3.38-.24-5.04.09-1.59-.27-3.28-.79-4.79-.41-1.19-.21-2.32-.3-3.47-.07-.82-.07-1.94,1.14-1.63.95.24,2.55-.36,2.46,1.88-.19,5.22,1.46,10.2,2.48,15.95,1.61-5.51,2.95-10.36,2.78-15.48-.04-1.26-.28-2.77,1.71-2.71,1.75.05,1.85,1.47,1.8,2.68-.2,5.19-1.18,10.25-2.75,15.2-.14.44-.12.94-.23,1.85,9.16-7.12,13.63-16.18,14.27-27.3.09-1.59-.44-2.05-1.97-1.93-3.14.25-6.22-.84-9.48-.12-1.8.4-2.71.82-3.14,2.57-.43,1.75-1.02,3.45-1.66,5.14-.24.65-.4,1.54-1.56,1.35-.84-.14-1.59.08-2.04-1.1-.57-1.51-1.01-3.08-1.66-4.52-.73-1.63,1.12-.47,1.01-1.47-6.12-.24-12.04,1.17-17.98,2.39-1.54.31-1.2,1.58-.99,2.84.79,4.83,2.26,9.4,5.09,13.55-4.37.25-5.62-.85-7.04-6.45-.8-3.17-1.37-6.37-1.3-9.72.04-1.87.82-2.76,2.29-3.18,4.43-1.24,8.94-2.1,13.53-2.42.59-.04,1.21.11,1.77-.03,4.99-1.27,4.87-.6,7.21,3.66-.06-2.07.63-3.72,1.77-4.83,1.24-1.21,3.13-1.26,4.9-1.18,3.89.17,7.77-.09,11.68.49,2.2.33,3.01,1.38,3.01,3.08.01,8.85-2.38,16.96-7.76,24.09-2.88,3.82-6.09,7.24-10.65,9.06-1.34.54-1.23,1.75-1.01,2.75.7,3.15,1.31,6.36,2.81,9.23.89,1.71.88,2.81-1.08,3.54.75.94,2.14-.99,2.65.93.57,2.15,2.71,3.86,1.9,6.4-.17.53-.73.88-1.42.8-.89-.11-1.51-.77-1.76-1.42-2.3-6.01-5.16-11.85-6.13-18.32-.21-1.44-.62-2.49-2.6-2.97-7.21-1.75-11.87-6.98-16.29-12.59v-.03Z"/>
  <path class="cls-1" d="M135.7,455.91c-2.76,1.25-3.97,3.73-5.51,6.56-.7-3.73-1.52-7.16-3.23-10.24-.96-1.72-2.51-3.14-4.71-2.81-2.1.31-3.33,1.55-4.25,3.71-1.51,3.58-1.08,7.03-.12,10.41,1.88,6.68,4.64,13.04,7.84,19.19,1.42,2.73,3.48,2.93,5.8.94,2.51-2.15,3.9-5.05,5.32-7.84,2.59-5.1,5.02-10.33,4.96-16.25-.04-3.74-2.66-5.24-6.09-3.68ZM130.4,478.26c1.27-.74,2.09-.39,2.67,0h-2.67ZM134.51,463.2c1.35-.23,2.15-.44,2.99.11-.89.39-1.7.37-2.99-.11Z"/>
  <path class="cls-1" d="M151.27,24.79c.06,5.93-1.6,6.95-6.45,4.53-3.82-1.9-7.84-3.36-11.46-5.7-3.19-2.06-4.87-4.35-4.06-6.41.99-2.49,4.03-3.42,7.8-2.39.73.2,1.56.18,2.2.53,1.63.91,1.37-.21,1.24-1.1-.4-2.48,0-4.77,1.11-7.05.75-1.56,1.9-2.03,3.4-2.13,1.66-.11,2.63.81,3.26,2.22,1.62,3.64,1.86,7.58,2.3,11.45.25,2.2.18,4.44.66,6.05h0Z"/>
  <path class="cls-1" d="M864.38,452.78c2.94.24,5.55.94,7.98,2.43,2.68,1.65,4.14,4.16,3.01,6.39-1.24,2.46-3.78,2.89-6.15,2.46-4.68-.85-9.48-1.26-14-2.88-4.19-1.5-5.72-.89-3.52-5.89,1.91-4.36,4.13-8.61,7.36-12.25,1.75-1.97,3.99-1.89,5.82-.97,1.97.99,2.21,3.25,1.63,5.39-.5,1.82-1.02,3.65-2.13,5.31h0Z"/>
  <path class="cls-1" d="M1140.18,208.28c-.53-2.9-.52-5.6.29-8.34.9-3.02,2.94-5.08,5.39-4.56,2.71.56,3.78,2.91,3.97,5.3.39,4.74,1.24,9.48.84,14.27-.36,4.43.62,5.75-4.78,4.93-4.7-.71-9.39-1.76-13.74-3.94-2.36-1.18-2.86-3.37-2.44-5.37.45-2.16,2.56-2.98,4.78-2.97,1.89,0,3.79.04,5.68.68h.01Z"/>
  <path class="cls-1" d="M942.29,6.26c.89-1.14,2.2-2.12,3.58-3.03.95-.63,1.18-1.74.64-2.59-.53-.82-1.61-.78-2.45-.24-1.53.98-3.25,1.74-4.42,3.19-.72.88-1.66,1.17-2.62.84-3.94-1.39-7.91-1.27-11.94-.54-2.95.54-5.39,2.83-4.28,4.61,1.78,2.85,0,5.14-.34,7.62-.36,2.57-1.26,5.1-.95,7.72.95,8.16,5.09,12.26,13.48,8.25,3.68-1.76,6.86-4.26,9.64-7.25,1.32-1.42,2.59-2.86,4.76-2.96,1.84-.08,2.35-1.09,2.32-2.92-.09-5.65-3.95-8.86-7.41-12.67h0ZM942.03,19.28c-.78,4.08-4.62,5.22-7.12,7.61-1.25,1.2-3.05,1.88-4.68,2.62-3.69,1.69-6.73-.11-7.18-4.24-.46-4.21.28-8.31,1.92-12.13.96-2.24,2.83-3.93,5.73-3.84-.02,1.31-.94,1.33-1.28,1.39-1.74.3-3.12,1.4-3.16,2.87-.03,1.28,1.91,1.56,2.99,2.29,1.13.76,1.52.2,2.06-.59.77-1.11,1.6-2.17,2.87-3.87.02,2.08-.76,2.86-1.37,3.79-.59.91-1.79,2.07.31,2.94,1.46.6,2.48,1.02,2.99-1.07.24-1,.89-2,2.02-2.7.56,1.58-.57,2.57-1.01,3.54-.71,1.55-.07,1.94,1.05,2.52,1.84.97,2.67.6,2.65-1.6,0-1.1-.53-2.35.51-3.34.3-.28.5-.18.68.03,1.08,1.26.28,2.46.02,3.77h0Z"/>
  <path class="cls-1" d="M951.25,38.42c-.28-.72-1.21-1.18-1.68-.75-2.07,1.92-3.83.3-5.71-.25-1.64-.48-3.26-1.03-5.03-1.01-5.26.05-6.55,1.51-5.95,6.78.05.4-.69.89-1.09,1.32-.33.36-.98.1-.91-.07.62-1.56-.23-1.14-.78-.52-3.71,4.18-2.96,9.77,1.43,11.91,2.79,1.36,5.78,1.2,8.58.6,2.59-.55,5.82.07,7.52-2.9,1.67-2.92,2.5-6.14,1.89-9.41-.28-1.55-.69-2.44,1.08-3.15,1.1-.44,1.02-1.6.64-2.56h.01ZM933.78,53.06c-2.84-1.45-3.32-5.18-.89-7.28.83-.72,1.11.46,1.71.27-.85,1.68.81,2.45,1.38,3.56.63,1.24,1.64,2.29,2.8,3.84-2.02.08-3.48.37-5-.4h0ZM943.07,44.9c.23-2.68,1.66-3.3,4.36-3.79-1.74,1.5-2.85,2.47-4.36,3.79Z"/>
  <path class="cls-1" d="M23.52,244.01c-.28-.72-1.21-1.18-1.68-.75-2.07,1.92-3.83.3-5.71-.26-1.64-.48-3.26-1.03-5.03-1.01-5.26.05-6.55,1.51-5.95,6.78.05.4-.69.89-1.09,1.32-.33.35-.98.1-.91-.07.62-1.56-.23-1.14-.78-.52-3.71,4.18-2.96,9.77,1.43,11.91,2.79,1.36,5.78,1.2,8.58.6,2.59-.55,5.82.07,7.52-2.9,1.67-2.92,2.5-6.14,1.89-9.41-.28-1.55-.69-2.44,1.08-3.15,1.1-.44,1.02-1.6.64-2.56h.01ZM6.05,258.65c-2.84-1.45-3.32-5.18-.89-7.28.83-.72,1.11.46,1.71.27-.85,1.68.81,2.45,1.38,3.56.63,1.24,1.64,2.29,2.8,3.84-2.02.08-3.48.37-5-.4h0ZM15.34,250.5c.23-2.68,1.66-3.3,4.36-3.79-1.74,1.5-2.85,2.47-4.36,3.79Z"/>
  <path class="cls-1" d="M978.53,377.1c-.75-.73-.48-1.45-.44-2.11.2-2.81-1.11-4.43-3.57-5.65-1.66-.82-3.43-1.38-5.12-1.52-5.88-.51-11.73-.35-16.64,3.86-.5-.71-.93-1.46-1.49-2.1-2.91-3.36-9.33-4.19-14.17-1.92-2.61,1.22-4.66,3.26-3.86,6,.88,3.04-.23,3.63-2.67,3.85-.47.04-1,.02-1.4.22-1.65.82-3.84.98-4.36,3.28-.56,2.49,1.21,3.7,2.83,4.96,3.14,2.46,6.85,4.03,10,6.5,2.11,1.65,4.64,2.85,7.14,3.36,2.57.53,1.94,1.63,1.62,3.18-1.46,7.32-4.16,14.18-7.45,20.84-.62,1.26-1.1,2.54.35,3.26,1.35.67,2.12-.56,2.63-1.64,3.47-7.2,6.65-14.5,7.72-22.53.15-1.11.26-2.22,1.91-2.35,3.26-.27,6.53-.58,9.73-1.18,5.6-1.05,11.08-2.45,15.91-5.82,5.86-4.09,6.35-7.52,1.31-12.49h0ZM928.29,382.17c1.63-1.56,3.74-1.21,5.4-2.07.53-.27,1.2.02,1.5.62,1.33,2.64,2.62,5.3,3.42,8.34-3.42-2.28-6.84-4.56-10.32-6.88ZM955.17,385.43c-.61-.26-1.28.4-4.04,3.92-.93-.99.37-1.69.34-2.58-.04-.98-.21-1.77-1.32-1.95-.94-.15-1.69.01-1.96,1.14-.31,1.29-.75,2.54-1.19,4.01-.31-1.14-.78-2.13-.83-3.15-.07-1.39-.71-2.49-1.93-2.49-1.39,0-1.95,1.25-1.63,3.29-2.37-4.11-4.39-7.62-5.37-11.61-1.12-4.56-.31-5.59,4.35-6.02,3.27-.3,6.27.34,8.9,2.46-.09.23-1.4-.31-1.16.34.99,2.65-.17,5.15-.25,7.71-.03,1.06-.21,2.35,1.31,2.48,1.24.11,1.89-.82,2.23-1.92.25-.81.53-1.63.66-2.46.71-4.42,3.65-6.59,7.74-7.16,3.55-.5,7.21-.74,10.7.44,3.44,1.16,3.89,3.26,1.33,5.81-5.01,4.99-11.15,8.32-17.1,11.92-1.18-1.33,1.58-3.18-.79-4.17ZM978.49,383.38c-.62,1.31-1.59,2.29-2.77,3.23-4.02,3.2-8.87,4.15-13.66,5.18-1.05.23-2.11,1.09-3.44.51,4.14-3.12,8.8-5.36,12.79-8.61,1.13-.92,2.16-1.94,3.22-2.91.81-.74,1.46-1.56,2.61-.65,1.04.84,1.93,1.81,1.26,3.24h0Z"/>
</svg>