<svg width="1155" height="485" viewBox="0 0 1155 485" fill="none" xmlns="http://www.w3.org/2000/svg">
<path d="M269.649 136.996C267.731 134.68 264.994 134.188 262.134 134.212C259.078 134.235 259.078 134.229 256.969 131.978C257.68 131.789 259.19 133.128 258.58 130.663C257.668 127.002 255.536 125.023 251.929 124.68C247.528 124.253 243.868 125.918 240.877 128.619C238.094 131.131 235.346 130.93 232.295 130.035C229.062 129.087 225.94 130.432 225.455 133.625C225.088 136.03 224.679 138.708 226.55 141.184C224.555 141.173 223.263 142.701 221.498 143.104C220.101 138.655 217.785 137.34 213.325 138.353C209.955 139.117 208.054 141.824 205.774 144.022C204.797 144.97 204.092 145.633 202.327 145.029C199.034 143.904 195.617 145.841 194.237 149.016C192.762 152.417 193.022 155.788 194.787 158.975C195.51 160.278 195.623 160.728 194.124 161.706C186.952 166.386 181.556 172.618 178.471 180.728C177.333 183.708 177.588 187.612 179.187 188.981C181.562 191.013 184.855 190.829 188.243 188.838C189.818 187.908 190.867 186.54 192.146 185.367C192.341 185.189 192.01 184.443 192.703 184.816C193.017 184.982 193.342 185.254 193.028 185.734C191.335 188.365 192.081 191.107 192.791 193.791C193.508 196.487 195.35 197.754 198.175 197.541C200.657 197.351 202.629 196.161 203.962 194.164C206.828 189.869 208.255 185.071 208.25 179.632C211.886 181.404 215.315 181.913 218.01 178.483C220.705 175.053 219.455 171.498 217.88 167.914C221.297 168.116 224.614 168.163 227.084 165.308C227.445 164.887 227.836 165.041 228.345 165.337C231.324 167.073 234.066 166.427 236.447 164.176C238.721 162.026 241.47 161.658 244.295 162.091C248.05 162.665 249.998 162.115 251.633 159.01C252.344 157.665 252.705 157.725 253.641 158.661C255.95 160.971 258.805 160.693 261.494 159.792C264.242 158.874 265.19 156.256 265.515 153.673C265.96 150.16 267.014 147.055 269.33 144.295C271.456 141.753 271.515 139.229 269.655 136.99L269.649 136.996ZM203.014 148.821C205.217 149.389 206.852 148.258 208.149 146.617C209.778 144.549 211.543 142.725 214.012 141.593C215.44 140.942 216.577 141.469 217.471 142.209C218.419 142.991 218.123 144.194 217.489 145.26C215.99 147.76 214.255 149.449 210.956 149.715C206.165 150.106 203.363 153.898 200.467 157.269C199.97 157.849 199.531 158.471 198.915 159.271C197.69 157.174 196.801 155.586 196.866 153.501C197.002 148.951 198.608 147.683 203.008 148.827L203.014 148.821ZM203.429 188.009C202.593 190.006 201.397 191.682 199.863 193.199C198.939 194.111 197.873 194.235 196.914 193.904C196.013 193.596 195.788 192.535 195.717 191.522C195.403 187.008 196.244 182.719 198.104 178.619C198.542 177.66 199.289 176.712 197.873 175.953C197.861 175.953 197.855 175.953 197.843 175.953C198.033 176.344 197.968 176.866 197.547 176.765C194.361 175.983 193.242 178.596 191.974 180.42C190.351 182.754 188.255 184.526 186.2 186.368C185.033 187.417 183.434 187.115 182.166 186.564C180.822 185.983 180.526 184.46 181 183.258C184.245 175.059 189.937 168.874 197.127 163.744C198.501 168.323 198.459 172.351 194.799 175.764C196.043 176.415 196.931 176.398 197.843 175.959C197.843 175.947 197.838 175.942 197.832 175.93C197.849 175.936 197.861 175.947 197.873 175.953C200.615 175.764 200.633 173.187 201.563 171.51C201.989 170.746 202.096 169.786 202.961 168.844C204.874 175.402 206.106 181.635 203.429 188.009ZM204.258 157.085C205.324 157.008 206.052 155.734 207.486 156.333C206.591 157.82 205.359 157.126 204.258 157.085ZM214.042 177.399C211.774 178.519 210.18 176.919 209.008 175.468C207.521 173.631 207.255 171.131 206.491 168.91C206.337 168.471 210.346 165.604 211.317 165.616C211.507 165.776 211.939 166.03 212.2 166.398C213.503 168.264 215.025 169.97 215.866 172.156C216.76 174.484 216.292 176.297 214.048 177.405L214.042 177.399ZM222.428 164.383C219.236 165.29 216.381 164.087 213.1 162.713C214.859 161.386 215.392 159.638 215.706 158.045C216.05 156.309 217.027 156.433 217.939 156.878C219.982 157.873 222.174 158.696 223.637 160.633C224.945 162.375 224.537 163.785 222.428 164.378V164.383ZM229.044 148.572C225.769 151.729 221.487 152.274 217.335 153.11C216.31 153.317 216.251 152.648 216.849 151.872C219.508 148.4 223.198 146.179 226.882 144.07C227.32 143.815 230.347 143.299 230.572 146.107C230.24 146.872 229.843 147.808 229.05 148.572H229.044ZM250.407 144.324C249.128 145.325 247.611 145.9 246.06 146.333C243.069 147.162 240.066 147.926 237.063 148.72C237.039 148.625 237.016 148.524 236.992 148.43C236.696 148.43 236.4 148.424 236.11 148.43C234.653 148.483 234.096 147.274 233.675 146.321C233.219 145.284 234.629 145.337 235.138 144.887C238.301 142.109 242.222 140.924 246.255 140.189C247.902 139.887 249.436 140.853 250.762 141.7C252.047 142.517 251.343 143.596 250.407 144.324ZM252.776 132.766C253.854 132.748 254.582 131.469 256.033 132.073C255.109 133.483 253.925 133.015 252.776 132.766Z" fill="#E84D00"/>
<path d="M908.803 199.36C906.167 197.607 903.348 198.199 900.298 198.774C901.992 194.49 903.016 190.438 901.654 186.173C900.766 183.389 899.498 180.853 896.543 179.775C894.529 179.04 893.054 179.627 890.904 180.687C886.824 182.701 885.592 185.776 884.455 189.467C884.005 190.924 884.082 192.595 882.944 193.981C879.717 190.646 876.062 186.428 871.526 189.313C865.07 193.424 868.724 198.708 872.065 203.448C870.691 203.086 869.678 202.612 868.653 202.18C866.326 201.191 862.535 201.872 861.108 203.513C859.189 205.711 859.313 208.205 860.995 211.185C862.138 213.205 864.276 214.336 865.455 216.528C857.418 214.04 853.444 218.78 853.734 225.142C853.93 229.396 856.411 232.251 859.899 234.301C864.282 236.878 869.02 238.199 874.345 237.826C873.071 240.77 871.443 243.246 869.399 245.569C868.701 244.627 868.209 243.774 867.534 243.11C866.805 242.399 866.284 241.066 864.987 241.44C863.637 241.83 863.358 242.998 863.116 244.378C862.115 250 862.6 255.586 863.003 261.499C859.781 258.626 857.14 255.569 854.759 252.251C854.084 251.315 852.792 250.983 854.587 249.402C856.026 248.134 856.997 245.788 856.743 243.353C856.618 242.168 856.565 241.309 855.197 241.167C856.192 240.812 856.92 240.415 856.713 239.04C856.014 234.396 854.332 230.243 851.187 226.706C850.157 225.545 848.647 225.344 847.486 225.604C846.497 225.823 846.266 227.334 845.975 228.507C845.229 231.505 845.584 234.573 845.087 237.66C841.753 231.392 838.081 225.355 836.132 218.306C838.335 218.59 839.751 217.411 840.953 215.96C844.743 211.398 845.981 206.037 845.365 200.272C845.182 198.543 844.027 197.541 842.019 198.714C840.965 199.331 840.159 200.089 839.526 201.078C837.654 204.017 835.794 206.967 833.864 210.035C833.224 208.667 834.397 206.481 831.974 206.499C827.763 206.528 832.128 210.16 830.032 211.244C827.023 208.827 823.286 207.826 819.886 206.149C818.352 205.391 816.842 206.191 816.534 207.802C816.256 209.248 816.102 210.871 816.996 212.346C820.088 217.464 824.352 220.675 830.541 220.646C832.265 220.64 833.65 220.681 834.166 222.737C835.356 227.5 838.086 231.594 840.059 236.019C840.716 237.488 841.492 238.146 843.05 237.885C843.144 237.867 843.275 238.057 843.535 238.27C842.759 238.383 842.114 238.477 841.486 238.572C841.492 239.396 842.813 239.609 842.345 240.61C841.978 240.829 841.693 240.675 841.302 240.545C837.932 239.467 834.545 238.371 830.944 238.454C828.841 238.501 827.71 239.745 828.456 241.7C829.789 245.184 831.968 248.211 835.374 249.923C839.407 251.949 843.648 253.341 848.291 252.091C849.476 251.771 850.364 252.31 851.069 253.258C853.473 256.481 856.002 259.597 859.473 262.814C853.687 262.31 848.783 263.264 843.938 264.526C842.884 264.799 841.516 264.982 841.332 266.422C841.148 267.867 841.687 269.147 843.044 269.781C843.897 270.178 844.655 270.729 845.525 271.12C852.111 274.082 858.81 273.442 865.562 272.156C866.817 271.919 867.735 270.681 869.145 270.752C871.47 270.867 872.112 269.893 871.07 267.832C870.833 267.358 870.874 266.943 871.046 266.463C872.858 261.445 872.319 256.327 871.395 251.268C871.147 249.911 871.271 249.046 872.041 247.998C874.049 245.249 875.944 242.417 877.892 239.615C882.429 244.935 887.629 248.62 895.021 247.944C900.019 247.488 904.9 243.685 904.752 238.187C904.615 233.158 902.3 229.982 898.225 227.453C901.476 226.54 904.775 226.38 907.577 224.313C909.892 222.607 909.59 220.355 909.223 218.312C908.921 216.629 907.115 215.948 905.314 215.954C903.206 215.96 901.091 215.954 898.189 215.954C901.707 213.489 905.296 212.63 907.766 210.024C908.157 209.609 908.88 209.366 908.708 208.703C908.53 208.015 908.003 208.312 907.547 208.537C906.86 208.88 907.032 208.235 907.026 207.98C907.026 207.713 906.896 207.026 907.494 207.334C909.336 208.282 910.343 206.973 910.437 205.729C910.609 203.531 911.302 201.019 908.809 199.366L908.803 199.36ZM822.072 211.552C823.09 211.487 823.896 210.112 825.181 210.841C824.464 212.299 823.238 211.712 822.072 211.552ZM902.969 224.526C902.874 224.455 902.969 223.88 903.105 223.809C903.786 223.466 904.42 223.584 905.083 224.55C904.319 224.953 903.62 225.018 902.969 224.526ZM907.073 204.941C906.747 205.936 904.971 206.682 906.315 208.211C906.688 208.637 905.824 208.756 905.356 208.845C901.228 209.621 897.757 211.682 894.624 214.396C893.617 215.261 893.771 216.434 894.12 217.37C894.488 218.365 895.376 218.993 896.673 218.934C899.036 218.833 901.411 218.993 903.768 218.868C904.965 218.803 905.8 219.413 906.12 220.237C906.398 220.942 905.35 221.481 904.781 221.943C902.844 223.507 900.422 223.566 898.112 223.945C896.466 224.218 894.618 224.39 894.126 226.291C893.605 228.3 895.175 229.573 896.555 230.551C898.562 231.979 900.363 233.406 901.097 235.918C902.039 239.117 900.914 242.085 898.018 243.566C893.22 246.013 888.956 244.538 885.053 241.576C883.809 240.634 882.482 239.757 881.541 238.282C879.811 235.581 880.125 233.003 882.98 231.434C886.729 229.372 889.75 226.386 893.007 223.703C893.783 223.063 894.553 222.251 893.593 221.25C892.735 220.349 891.781 220.509 890.739 221.226C888.867 222.506 887.463 224.449 884.84 225.421C886.314 220.729 887.961 216.647 888.82 212.411C889.596 208.59 890.822 204.876 891.355 201.013C891.426 200.498 891.319 199.431 890.2 199.366C889.24 199.313 888.476 199.467 888.056 200.48C887.363 202.15 887.718 204.094 886.279 206.315C885.059 204.846 884.046 203.377 882.773 202.186C882.139 201.594 880.919 200.906 880.113 201.765C879.296 202.63 879.592 203.768 880.534 204.603C880.682 204.733 880.806 204.893 880.972 205C886.202 208.264 885.657 212.761 883.928 217.731C882.056 223.122 879.877 228.377 877.33 233.466C876.56 235.006 874.422 234.899 873.077 234.787C867.682 234.325 862.44 233.104 858.614 228.803C856.672 226.623 856.755 223.987 857.856 221.487C858.751 219.449 860.207 218.406 862.707 219.419C864.164 220.012 865.692 220.61 867.362 220.758C868.588 220.871 869.571 221.143 870.347 219.84C871.07 218.631 871.212 217.535 870.383 216.345C869.168 214.597 868.002 212.796 866.029 211.789C864.407 210.96 864.087 209.218 863.275 207.844C862.813 207.062 863.459 206.333 864.122 205.859C865.117 205.136 866.278 204.591 867.427 205.32C869.601 206.7 871.644 208.288 873.824 209.656C875.002 210.397 876.281 211.374 877.744 210C879.053 208.774 879.059 207.026 878.254 206.001C877.04 204.467 877.241 201.475 874.209 201.588C874.108 201.588 873.853 201.114 873.901 200.918C874.617 197.897 869.257 195.764 872.657 192.364C873.83 191.197 874.907 191.505 876.104 192.399C878.834 194.443 881.351 196.706 883.164 199.621C883.774 200.604 884.52 201.392 885.545 200.865C886.516 200.367 886.67 199.467 886.622 198.039C886.439 192.82 887.54 187.778 891.473 183.88C892.557 182.802 894.197 182.204 895.477 182.992C897.402 184.182 898.456 186.173 898.722 188.519C899.315 193.691 897.271 198.134 894.725 202.34C894.079 203.412 894.067 204.117 894.642 204.828C895.37 205.729 896.235 205.314 897.177 204.799C899.64 203.448 901.79 201.321 904.994 201.718C907.097 201.979 907.82 202.743 907.091 204.947L907.073 204.941Z" fill="#E84D00"/>
<path d="M237.844 331.083C240.722 330.236 242.481 331.438 244.199 333.316C246.645 335.994 249.553 338.156 252.97 339.637C249.713 335.313 246.455 331.029 244.086 326.172C243.506 324.981 242.92 323.76 242.629 322.481C242.416 321.545 242.156 320.23 243.731 319.975C244.921 319.779 245.591 320.532 245.911 321.533C247.456 326.326 250.477 330.224 253.385 334.353C254.623 332.493 253.053 330.97 253.142 329.311C253.231 327.724 252.876 326.035 252.348 324.519C251.934 323.328 252.135 322.196 252.046 321.047C251.981 320.224 251.981 319.11 253.189 319.418C254.137 319.655 255.736 319.057 255.653 321.296C255.464 326.515 257.116 331.497 258.135 337.25C259.746 331.74 261.09 326.894 260.918 321.77C260.877 320.508 260.64 319.003 262.63 319.057C264.377 319.104 264.478 320.526 264.431 321.734C264.229 326.924 263.246 331.983 261.677 336.93C261.534 337.374 261.558 337.866 261.452 338.778C270.608 331.657 275.085 322.599 275.719 311.48C275.808 309.892 275.281 309.43 273.753 309.548C270.608 309.797 267.534 308.707 264.271 309.43C262.47 309.827 261.558 310.247 261.132 311.995C260.705 313.743 260.107 315.449 259.473 317.137C259.231 317.783 259.071 318.672 257.916 318.482C257.075 318.34 256.328 318.559 255.878 317.38C255.304 315.875 254.866 314.305 254.214 312.86C253.48 311.231 255.333 312.386 255.227 311.385C249.109 311.142 243.186 312.558 237.252 313.778C235.712 314.092 236.055 315.36 236.263 316.616C237.056 321.45 238.519 326.012 241.35 330.17C236.979 330.425 235.735 329.323 234.308 323.719C233.503 320.55 232.94 317.345 233.005 314.003C233.041 312.137 233.822 311.243 235.297 310.822C239.727 309.578 244.234 308.725 248.83 308.405C249.417 308.364 250.045 308.512 250.601 308.375C255.588 307.108 255.47 307.777 257.815 312.036C257.756 309.963 258.443 308.316 259.586 307.202C260.824 305.994 262.713 305.946 264.484 306.023C268.375 306.189 272.254 305.929 276.169 306.509C278.367 306.835 279.178 307.89 279.184 309.59C279.196 318.435 276.809 326.551 271.425 333.683C268.541 337.504 265.337 340.923 260.77 342.747C259.426 343.287 259.539 344.501 259.758 345.496C260.462 348.642 261.072 351.853 262.571 354.726C263.459 356.432 263.447 357.54 261.493 358.269C262.245 359.211 263.637 357.279 264.146 359.199C264.715 361.349 266.853 363.055 266.042 365.603C265.87 366.136 265.313 366.486 264.62 366.403C263.726 366.29 263.11 365.632 262.861 364.987C260.557 358.974 257.702 353.138 256.731 346.669C256.518 345.23 256.109 344.181 254.131 343.701C246.917 341.954 242.262 336.717 237.838 331.112L237.844 331.083Z" fill="#E84D00"/>
<path d="M135.697 455.907C132.937 457.157 131.729 459.639 130.183 462.465C129.479 458.732 128.661 455.308 126.95 452.228C125.99 450.504 124.439 449.088 122.235 449.42C120.133 449.734 118.901 450.966 117.983 453.134C116.473 456.712 116.905 460.166 117.858 463.543C119.742 470.219 122.502 476.582 125.7 482.737C127.116 485.462 129.177 485.67 131.504 483.679C134.015 481.529 135.401 478.632 136.829 475.836C139.423 470.741 141.845 465.51 141.786 459.586C141.75 455.847 139.127 454.349 135.697 455.907ZM130.403 478.264C131.67 477.524 132.493 477.873 133.074 478.264H130.403ZM134.513 463.205C135.863 462.974 136.663 462.761 137.498 463.318C136.61 463.703 135.798 463.685 134.513 463.205Z" fill="#E84D00"/>
<path d="M151.268 24.7865C151.328 30.7166 149.669 31.7355 144.819 29.3185C140.998 27.4168 136.983 25.9535 133.358 23.6135C130.172 21.5578 128.484 19.2652 129.301 17.2035C130.29 14.7095 133.335 13.7794 137.101 14.8102C137.83 15.0116 138.665 14.9879 139.305 15.3434C140.939 16.2557 140.679 15.1301 140.542 14.2474C140.146 11.7652 140.542 9.47843 141.65 7.19762C142.402 5.63956 143.545 5.16563 145.05 5.06492C146.708 4.95236 147.679 5.87653 148.307 7.28648C149.93 10.9239 150.167 14.8694 150.611 18.732C150.86 20.9298 150.789 23.1751 151.274 24.7865H151.268Z" fill="#E84D00"/>
<path d="M864.377 452.779C867.32 453.016 869.926 453.721 872.355 455.214C875.038 456.866 876.495 459.372 875.363 461.606C874.12 464.07 871.579 464.497 869.216 464.064C864.531 463.217 859.74 462.808 855.215 461.185C851.027 459.686 849.499 460.297 851.691 455.291C853.598 450.93 855.825 446.677 859.052 443.039C860.806 441.067 863.044 441.15 864.874 442.068C866.847 443.063 867.089 445.314 866.503 447.459C866.006 449.284 865.484 451.108 864.371 452.767L864.377 452.779Z" fill="#E84D00"/>
<path d="M1140.18 208.281C1139.65 205.377 1139.66 202.677 1140.47 199.945C1141.37 196.926 1143.41 194.87 1145.86 195.385C1148.57 195.948 1149.64 198.292 1149.83 200.687C1150.22 205.431 1151.07 210.165 1150.67 214.956C1150.31 219.388 1151.29 220.706 1145.89 219.885C1141.19 219.172 1136.5 218.122 1132.15 215.945C1129.79 214.762 1129.29 212.579 1129.71 210.573C1130.16 208.41 1132.27 207.593 1134.49 207.605C1136.38 207.613 1138.28 207.644 1140.17 208.29L1140.18 208.281Z" fill="#E84D00"/>
<path d="M942.295 6.25586C943.189 5.11842 944.492 4.135 945.878 3.22268C946.832 2.59472 947.063 1.4869 946.518 0.63382C945.991 -0.18964 944.907 -0.142247 944.066 0.390929C942.532 1.36842 940.82 2.12671 939.641 3.57813C938.925 4.46083 937.977 4.74519 937.024 4.41344C933.085 3.02718 929.117 3.13974 925.084 3.87434C922.134 4.41344 919.694 6.70609 920.802 8.48335C922.584 11.3329 920.808 13.6196 920.464 16.1018C920.103 18.6729 919.208 21.2025 919.51 23.821C920.458 31.9845 924.598 36.0841 932.99 32.0675C936.668 30.308 939.849 27.808 942.632 24.8222C943.953 23.4063 945.227 21.9608 947.388 21.8601C949.23 21.7772 949.734 20.7701 949.704 18.9395C949.615 13.2878 945.754 10.0769 942.289 6.26771L942.295 6.25586ZM942.034 19.2831C941.252 23.3589 937.409 24.5023 934.915 26.8957C933.666 28.0983 931.865 28.7736 930.236 29.5201C926.547 31.2144 923.502 29.4134 923.052 25.2843C922.596 21.0781 923.331 16.9727 924.971 13.1575C925.931 10.9182 927.802 9.22387 930.704 9.31865C930.681 10.6279 929.768 10.6457 929.419 10.7049C927.678 11.0011 926.298 12.1089 926.256 13.5781C926.221 14.8578 928.169 15.1362 929.247 15.8649C930.373 16.6232 930.764 16.0663 931.308 15.2784C932.078 14.1706 932.907 13.1101 934.181 11.404C934.199 13.4833 933.417 14.2594 932.813 15.1895C932.226 16.0959 931.024 17.263 933.121 18.1338C934.584 18.7381 935.596 19.1528 936.106 17.0675C936.349 16.0663 936.994 15.071 938.125 14.372C938.682 15.9478 937.557 16.9431 937.118 17.9087C936.408 19.4608 937.053 19.8518 938.167 20.4324C940.009 21.398 940.838 21.0367 940.82 18.8329C940.814 17.731 940.293 16.481 941.329 15.4916C941.631 15.2073 941.827 15.3139 942.005 15.5213C943.083 16.7772 942.283 17.9798 942.028 19.289L942.034 19.2831Z" fill="#E84D00"/>
<path d="M951.25 38.4238C950.965 37.707 950.036 37.2449 949.568 37.6774C947.501 39.5968 945.736 37.9736 943.858 37.4226C942.218 36.9428 940.601 36.3918 938.83 36.4096C933.571 36.457 932.28 37.9203 932.884 43.1869C932.931 43.5838 932.197 44.0814 931.794 44.5079C931.462 44.8634 930.817 44.6086 930.882 44.4428C931.498 42.8847 930.657 43.2994 930.106 43.9214C926.392 48.1039 927.151 53.6963 931.533 55.835C934.323 57.1916 937.314 57.0376 940.115 56.4392C942.703 55.8883 945.937 56.5044 947.631 53.5423C949.301 50.6217 950.13 47.4049 949.52 44.1288C949.236 42.5826 948.833 41.688 950.598 40.9831C951.7 40.5387 951.617 39.3835 951.238 38.4238H951.25ZM933.778 53.0624C930.941 51.611 930.461 47.8847 932.89 45.7816C933.719 45.0648 933.997 46.2378 934.601 46.0541C933.748 47.7307 935.413 48.5008 935.981 49.6146C936.615 50.8587 937.622 51.9072 938.777 53.4594C936.757 53.5423 935.294 53.8326 933.778 53.0565V53.0624ZM943.071 44.9049C943.296 42.2271 944.729 41.6051 947.43 41.1193C945.694 42.6241 944.581 43.5897 943.071 44.9049Z" fill="#E84D00"/>
<path d="M23.5212 244.015C23.2369 243.298 22.3071 242.836 21.8392 243.268C19.7722 245.188 18.0073 243.564 16.1298 243.013C14.4892 242.534 12.8723 241.983 11.1015 242C5.84218 242.048 4.55102 243.511 5.15513 248.778C5.20251 249.175 4.46812 249.672 4.06539 250.099C3.73372 250.454 3.08813 250.199 3.15328 250.034C3.76923 248.476 2.92826 248.89 2.37745 249.512C-1.33604 253.695 -0.577921 259.287 3.80482 261.426C6.59438 262.782 9.5853 262.628 12.3867 262.03C14.9749 261.479 18.2086 262.095 19.9025 259.133C21.5727 256.213 22.4019 252.996 21.7918 249.72C21.5076 248.173 21.1048 247.279 22.8697 246.574C23.9713 246.13 23.8885 244.974 23.5094 244.015H23.5212ZM6.04945 258.653C3.21251 257.202 2.73278 253.476 5.16106 251.372C5.99023 250.656 6.2686 251.829 6.87271 251.645C6.01985 253.322 7.68415 254.092 8.25273 255.205C8.88645 256.449 9.89328 257.498 11.0482 259.05C9.02857 259.133 7.56565 259.423 6.04945 258.647V258.653ZM15.3421 250.496C15.5672 247.818 17.0004 247.196 19.7011 246.71C17.9658 248.215 16.8524 249.181 15.3421 250.496Z" fill="#E84D00"/>
<path d="M978.535 377.103C977.789 376.368 978.05 375.657 978.097 374.988C978.299 372.18 976.99 370.556 974.532 369.342C972.867 368.519 971.097 367.962 969.409 367.819C963.527 367.31 957.676 367.47 952.772 371.676C952.274 370.965 951.842 370.213 951.285 369.573C948.371 366.208 941.951 365.385 937.113 367.648C934.507 368.868 932.457 370.912 933.257 373.649C934.139 376.688 933.026 377.28 930.592 377.5C930.118 377.541 929.591 377.517 929.188 377.719C927.542 378.542 925.35 378.702 924.829 380.995C924.266 383.489 926.043 384.692 927.66 385.959C930.799 388.418 934.512 389.994 937.663 392.458C939.778 394.111 942.307 395.308 944.8 395.823C947.365 396.35 946.737 397.452 946.423 399.004C944.966 406.321 942.259 413.187 938.972 419.84C938.35 421.101 937.871 422.381 939.322 423.104C940.672 423.779 941.442 422.541 941.957 421.463C945.422 414.259 948.608 406.96 949.674 398.933C949.823 397.825 949.929 396.718 951.582 396.581C954.839 396.315 958.108 396.001 961.312 395.396C966.915 394.342 972.394 392.944 977.226 389.579C983.084 385.491 983.576 382.061 978.535 377.091V377.103ZM928.294 382.174C929.922 380.61 932.031 380.965 933.695 380.1C934.222 379.828 934.897 380.124 935.194 380.716C936.526 383.359 937.817 386.013 938.617 389.052C935.2 386.771 931.776 384.496 928.294 382.174ZM955.171 385.426C954.561 385.171 953.891 385.829 951.131 389.348C950.202 388.353 951.504 387.654 951.469 386.765C951.427 385.782 951.256 384.994 950.148 384.816C949.212 384.662 948.46 384.828 948.188 385.953C947.874 387.239 947.442 388.495 946.997 389.964C946.684 388.827 946.216 387.831 946.168 386.812C946.103 385.42 945.458 384.318 944.243 384.318C942.852 384.318 942.295 385.568 942.615 387.612C940.246 383.507 938.226 379.994 937.243 376.007C936.118 371.445 936.935 370.414 941.59 369.982C944.859 369.68 947.862 370.319 950.486 372.44C950.397 372.665 949.082 372.126 949.331 372.784C950.326 375.432 949.159 377.932 949.082 380.491C949.047 381.552 948.869 382.837 950.391 382.968C951.629 383.074 952.28 382.144 952.618 381.048C952.867 380.237 953.151 379.419 953.281 378.584C953.992 374.164 956.93 371.99 961.022 371.421C964.57 370.924 968.23 370.681 971.724 371.86C975.165 373.015 975.61 375.124 973.057 377.671C968.052 382.665 961.905 385.989 955.958 389.591C954.78 388.258 957.534 386.41 955.171 385.426ZM978.494 383.382C977.878 384.692 976.901 385.675 975.722 386.611C971.701 389.81 966.85 390.758 962.065 391.795C961.01 392.026 959.95 392.885 958.624 392.31C962.769 389.194 967.425 386.955 971.41 383.696C972.542 382.772 973.566 381.759 974.632 380.782C975.438 380.047 976.095 379.218 977.238 380.136C978.275 380.971 979.163 381.943 978.494 383.376V383.382Z" fill="#E84D00"/>
</svg>
