<svg width="279" height="404" viewBox="0 0 279 404" fill="none" xmlns="http://www.w3.org/2000/svg">
<path d="M159.33 4.1076L157.504 4.95453C157.454 6.67305 158.754 6.68127 159.47 5.26699C159.914 4.37895 159.684 3.12089 160.819 2.5042C162.061 2.33152 160.975 3.75403 161.197 4.56807C161.938 7.37197 162.933 4.59273 163.682 4.53518C164.562 4.46117 166.051 5.32454 167.376 5.39855C169.514 5.52188 171.596 4.65029 173.759 4.97097V2.91533C179.978 2.99755 187.802 4.42006 191.759 9.76474C193.462 12.0671 193.569 14.9039 195.304 16.8937C196.826 18.6287 200.183 19.9607 201.861 21.8355C202.544 22.6002 204.617 26.2592 205.044 27.2706C206.13 29.8278 205.974 33.9556 208.565 34.8354C211.601 35.8632 218.807 34.2434 222.402 34.1118C232.389 33.7418 242.434 33.602 252.388 33.2895C260.318 33.0429 268.273 33.0346 276.187 32.6153L277.149 33.0018C279.321 36.0194 279.033 39.3907 278.918 42.9757C278.753 48.1231 277.832 53.3937 277.651 58.5493C276.647 87.0241 277.454 115.507 277.273 144.015C277.051 179.15 276.483 214.063 276.039 249.165C275.759 270.947 275.718 292.934 275.594 314.88C275.594 315.653 276.129 316.796 275.998 317.273C275.438 319.254 265.682 316.516 264.703 317.914C263.954 319.937 264.941 322.428 264.892 324.262C264.752 329.862 262.852 336.999 262.449 342.393C261.017 361.28 252.198 385.134 240.879 400.477C237.235 405.411 232.751 404.185 227.741 402.566C213.205 397.862 199.179 388.826 187.514 379.131C168.568 363.377 150.52 344.522 143.075 320.471C142.918 319.953 142.614 319.205 142.12 318.958C134.799 318.654 127.444 318.687 120.123 318.745C110.967 318.81 101.696 319.074 92.6382 319.189C75.7247 319.402 58.8605 319.764 42.0045 321.121C40.0466 321.072 41.5355 316.599 41.5026 314.839C41.3299 306.386 40.7294 297.859 40.6471 289.406C40.6142 285.961 40.6718 279.622 41.6672 276.431C42.2924 274.458 48.3388 265.75 49.943 263.349C53.3981 258.144 57.7252 253.005 61.1227 247.833C64.5202 242.661 67.3008 236.601 70.8875 231.314C74.0712 226.627 78.2337 222.598 81.4256 218.043C82.4786 216.546 84.3213 213.043 80.7922 214.104C80.315 214.244 76.1689 218.446 75.5848 219.169C73.2238 222.096 70.0237 230.385 65.3676 226.89C64.8575 225.369 66.256 223.042 67.0211 221.694C68.0741 219.835 70.4597 217.64 71.2659 216.077C71.521 215.584 71.5703 215.354 71.0685 215.033C66.6509 212.246 61.1474 224.909 57.61 225.829C53.2994 226.948 52.1641 224.67 53.069 220.879C53.5297 218.939 59.0497 215.453 58.3257 214.433C52.5508 212.073 45.5665 224.802 41.3381 224.58C40.0301 224.514 37.7925 223.313 37.4635 221.94C36.7478 218.972 38.1956 218.289 40.4414 216.883C41.1571 216.431 45.5171 214.704 44.7603 214.022C41.4451 213.882 38.0722 215.79 35.3493 217.541C32.8073 219.169 27.1968 223.585 25.7819 226.051C24.3669 228.518 23.3798 234.323 19.5956 233.238C19.3899 233.18 17.7364 231.98 17.6295 231.807C15.0299 227.375 22.5407 222.318 24.6302 219.153C22.3844 217.442 18.8799 218.988 17.8598 221.414C16.6752 224.226 16.6505 230.023 15.8361 233.353C15.3425 235.384 13.8865 237.053 11.9944 237.719C3.84196 240.614 5.96438 236.289 5.75872 230.22C5.01011 208.143 4.29441 185.843 4.11343 163.716C3.93245 140.57 2.69848 117.448 2.04037 94.2846C1.49742 75.348 1.30821 56.9377 0.00843306 37.9682C-0.197228 34.9669 2.21312 36.1839 3.86664 36.2003C41.4697 36.5704 78.9577 35.263 116.421 36.2003C117.992 36.2414 121.225 36.2168 122.533 35.3945C124.228 34.3338 122.508 30.831 122.393 29.4085C122.221 27.2377 122.089 21.227 122.591 19.3276C123.167 17.1239 127.601 12.2233 129.698 11.2366C132.487 9.92919 135.868 10.439 137.9 9.58384C139.652 8.84381 139.866 4.85586 141.709 3.53202C142.285 3.11267 145.246 2.33975 146.11 2.1753C146.727 2.06018 147.344 2.54531 147.978 2.42197C148.989 2.22463 150.215 0.37455 151.466 0.103205C151.762 0.0374245 155.077 -0.0283561 155.455 0.0127568C157.528 0.218321 159.741 1.78061 159.33 4.1076ZM187.547 105.443C188.559 104.226 190.755 101.414 191.495 100.147C195.485 93.3802 191.454 84.0229 196.004 77.5435C197.723 75.0931 200.915 76.2114 200.898 78.7029C200.89 80.15 199.409 83.1842 201.4 83.7844C204.567 83.4966 206.542 75.9565 206.566 73.3253C206.583 71.7383 205.193 66.6732 203.449 66.2292C201.162 65.6536 201.729 70.2583 201.17 71.6232C200.051 74.3613 195.814 72.4948 194.786 70.4063C194.416 65.0698 195.37 59.7991 195.132 54.4545C194.638 43.5349 194.227 35.6823 187.654 26.6128C186.922 25.6014 183.261 21.0708 182.488 20.6843C181.714 20.2979 175.339 18.2258 174.697 18.2422C173.323 18.2751 170.559 19.6565 168.61 19.7634C161.395 20.1663 156.862 14.8874 150.98 15.685C141.479 16.9759 128.259 30.5021 126.622 39.7936C123.792 55.8112 124.187 68.3835 125.7 84.4587C126.35 91.4067 126.975 100.049 130.126 106.322C133.433 112.901 149.508 125.226 157.092 124.897C158.252 124.848 159.314 123.894 160.432 123.721C161.716 123.524 162.941 123.886 164.324 123.508C170.024 121.945 183.623 110.204 187.555 105.467L187.547 105.443ZM70.3281 51.2888C68.2468 49.2249 73.4953 45.2945 71.0438 43.798C68.5923 42.3015 64.8411 43.65 62.5541 44.7436C57.1411 47.3337 53.9986 52.6455 49.4329 56.247C45.0482 59.7005 41.8728 59.7498 38.6645 65.2096C35.4562 70.6694 35.777 76.9597 35.7606 82.8059C35.7606 84.6231 34.9462 87.0652 34.8886 88.9482C34.7323 93.8159 34.9626 98.6755 34.905 103.543C37.7185 103.847 36.0896 99.3086 36.1143 97.1625C36.1801 92.5003 36.4105 87.1639 38.2943 82.9128C39.1005 81.1038 40.8034 79.0482 41.478 77.0337C41.6836 74.9862 37.7843 72.9224 39.6681 69.0907C41.7165 64.93 46.1095 67.4132 49.4823 67.4379C53.6531 67.4626 56.993 66.221 60.4235 63.968C63.8539 61.715 70.9862 53.6651 75.157 55.6961C78.0445 57.1021 72.3271 63.968 69.4643 63.3513L69.4068 64.9382C70.3857 65.0123 71.2083 64.4942 72.1955 64.782C73.9724 65.2918 72.8619 66.8212 76.4075 65.9907C79.5829 65.2507 81.5984 62.2659 83.9922 60.4323C88.4263 57.0528 94.0285 52.703 99.6883 51.889C101.276 51.6588 105.661 51.3299 106.557 52.629C109.675 57.1679 103.275 57.4557 103.456 60.6214C103.538 62.0357 105.373 63.4829 106.64 64.0255C107.117 64.0667 110.152 62.4468 110.679 62.0603C111.905 61.1559 115.903 57.0446 116.775 55.7947C117.811 54.3147 117.556 53.5582 116.108 52.5222C110.95 48.8467 101.893 48.7973 96.0029 50.6721C92.556 51.7739 87.9821 56.7321 85.8679 51.1736C85.9584 48.748 90.9683 46.9801 89.8742 45.2698C87.5461 44.6449 83.9511 45.977 81.6313 46.9719C79.8379 47.7448 77.4851 49.1016 75.6835 50.0554C74.2604 50.8036 72.1544 53.0895 70.3199 51.2723L70.3281 51.2888ZM81.4174 68.1204C81.8451 68.5891 84.8231 69.1235 85.5882 69.0331C90.2526 68.4904 97.1052 62.3564 99.7953 58.574C96.7186 56.469 92.9509 59.7087 90.3842 61.4765C89.4464 62.1179 88.7554 63.3431 87.8505 63.8775C86.3532 64.7656 82.3223 65.4563 81.2775 66.3772C80.8744 66.739 81.1788 67.8655 81.4009 68.1204H81.4174ZM133.071 142.979C133.746 145.15 134.791 147.271 136.567 148.718C136.938 148.397 137.176 148.266 137.176 147.715C137.176 147.115 135.876 143.883 135.654 142.658C134.322 135.43 134.387 127.833 132.471 120.375C130.875 114.134 129.221 115.828 126.326 111.733C123.973 108.419 122.13 101.521 121.283 97.475C119.711 89.9596 119.967 77.4037 115.598 71.5328C111.23 65.6618 110.029 70.3734 105.718 70.6694C103.917 70.7927 100.906 69.3702 99.6965 69.5265C98.0677 69.7402 93.6254 73.5884 91.6099 74.1969C89.5945 74.8053 83.3094 74.4189 81.3104 73.7775C79.6569 73.2431 77.5345 70.9654 76.0866 70.7516C74.9102 70.5789 73.0099 71.9274 70.2047 71.3272C68.0905 70.875 66.5028 68.3753 64.7177 68.6302C63.5989 68.7864 60.7937 71.0312 59.4281 71.5985C56.6722 72.7415 55.0187 71.4834 54.303 75.1014C54.0562 76.3841 54.5169 77.4859 53.8176 78.7193C53.1184 79.9527 48.4293 82.1892 47.0144 83.4226C43.2384 86.7034 42.424 89.9349 41.8811 94.7204C40.6964 105.147 42.7448 113.624 46.3809 123.08C47.1871 125.185 50.7409 130.744 46.8169 131.738C44.0364 132.437 41.8317 123.795 38.7303 123.327L37.7432 123.845C37.521 124.1 37.3976 124.387 37.3483 124.725C36.9123 128.088 43.5263 137.396 45.3197 140.972C46.7264 143.768 46.3727 146.975 50.9055 147.09C50.7739 145.89 49.6139 145.141 49.3589 143.916C48.8982 141.704 49.1779 139.015 50.9137 137.412C51.6705 137.026 52.4274 137.387 52.9785 137.947C53.7436 138.719 57.1987 145.248 57.7828 146.58C58.7041 148.718 59.1401 151.218 60.0451 153.356C61.7068 157.302 63.8374 161.036 65.0796 165.163L66.9306 165.574C67.4653 163.881 65.7707 160.476 67.1033 159.366C69.3903 157.475 71.2495 163.297 71.669 164.727C72.5328 167.688 72.7796 175.31 75.1817 176.823C75.6013 177.086 76.1278 177.226 76.5967 177.374C78.8754 177.012 75.0748 168.165 75.5601 166.388C77.2712 164.596 80.5865 172.432 80.8004 173.674C81.0636 175.219 80.7099 176.617 81.1706 178.229C81.5325 179.495 83.367 182.209 83.7784 179.725C84.0005 178.41 82.9886 172.736 83.8113 172.177L84.7738 172.136C89.1914 173.402 85.399 181.173 88.0808 182.858C88.6896 183.236 88.887 182.94 89.4793 182.768C89.8742 179.438 87.7517 175.943 90.9518 173.452C96.225 174.997 92.0295 183.623 97.3191 183.639C98.1664 182.801 94.5139 176.552 97.9196 174.578C99.6801 173.559 101.046 176.034 101.63 177.481C102.806 180.408 102.197 185.761 105.949 185.687C106.376 185.243 103.604 176.034 103.917 174.011C104.262 171.824 106.5 170.623 108.573 171.363C109.297 171.618 108.943 172.613 109.642 172.539C109.289 171.199 109.716 166.66 111.732 166.956C113.459 167.211 115.072 173.715 116.141 175.285C116.495 175.812 116.602 176.412 117.449 176.231C116.997 172.917 114.537 166.964 115.483 163.79C115.829 162.614 117.161 162.351 118.099 163.058C120.723 165.032 119.193 171.708 123.611 170.894C124.162 170.393 118.543 158.659 121.743 156.604C125.593 156.9 124.187 160.542 127.107 162.269C129.55 162.803 126.186 156.209 125.881 155.272C124.861 152.081 123.413 149.269 126.284 146.662C126.819 146.531 128.942 149.244 129.295 149.812C130.718 152.098 130.891 156.283 134.289 156.11C134.758 155.658 131.039 146.375 131.895 143.653C132.068 143.11 132.487 142.855 133.047 142.971L133.071 142.979ZM229.354 100.517C224.673 96.9159 219.589 94.0791 214.447 90.9874C212.621 89.8856 210.416 87.2543 208.105 88.0026C207.965 88.0437 206.056 89.8527 205.99 89.976C205.275 91.415 206.632 96.1018 206.64 98.0012C206.665 101.512 205.793 109.357 204.938 112.761C204.378 114.997 202.075 119.084 202.141 121.016C202.182 122.233 203.909 123.911 203.374 125.662C205.752 127.019 206.706 124.059 207.981 122.99C209.256 121.921 213.97 117.842 214.842 117.316C215.986 116.625 220.535 114.636 221.785 114.405C225.849 113.649 230.464 116.247 226.746 120.186C224.13 122.965 220.839 122.332 217.697 123.458C213.106 125.111 211.239 128.729 208.055 131.886C206.78 133.153 204.929 133.399 205.365 135.768C205.801 138.136 211.412 135.208 213.427 136.762C214.488 137.544 213.715 139.978 213.065 140.792C210.976 143.398 204.024 143.53 200.726 145.084C198.43 146.169 192.919 151.736 192.639 154.252C192.59 154.663 192.491 155.674 192.861 155.699C195.691 155.132 197.106 152.813 200.281 152.805C202.807 152.797 205.711 156.9 203.523 158.972C202.05 160.37 196.176 161.504 193.741 163.157C192.145 164.242 191.29 166.166 190.179 166.989C189.39 167.572 188.238 167.663 187.333 168.255C186.337 168.905 179.822 173.435 179.584 173.846C178.062 176.494 184.832 176.856 186.403 177.349C187.539 177.703 194.786 180.005 193.47 181.576C189.661 182.316 176.277 183.763 174.138 186.682C173.504 187.545 173.545 188.663 174.327 189.42C174.927 189.889 175.701 189.856 176.408 189.815C183.146 189.387 192.104 185.095 199.031 185.259C202.108 185.333 210.564 188.252 213.337 189.856C217.055 192.01 221.53 196.722 215.78 199.575C210.836 198.391 205.966 196.598 200.956 195.669C198.151 195.143 195.296 195.102 192.491 194.682C190.089 194.321 187.818 193.079 185.26 193.498C185.194 194.765 186.338 196.417 187.604 196.697C190.961 197.437 195.395 197.462 198.842 198.193C201.417 198.744 203.885 199.887 206.352 200.537C210.449 201.614 214.628 202.321 218.61 203.892C220.346 204.903 222.402 211.037 223.299 213.167C223.513 213.685 224.204 214.071 224.508 214.836C225.833 218.199 225.462 224.127 220.617 222.006C217.516 218.939 214.768 215.025 211.765 211.966C209.191 209.343 204.954 208.702 201.384 207.978C199.475 207.592 192.68 206.268 191.29 206.696C189.102 207.378 192.433 209.458 193.404 209.795C197.855 211.358 203.679 211.843 208.245 213.438C210.112 217.196 215.903 221.134 217.672 224.547C218.067 225.303 218.092 225.706 218.157 226.528C218.486 231.133 215.953 230.615 212.251 230.385C210.943 229.061 210.852 227.186 209.511 225.731C204.625 220.435 195.987 219.293 189.801 216.686C187.884 215.88 185.342 213.454 183.088 214.005C181.509 215.559 183.088 218.067 184.75 218.865C187.481 220.156 192.203 220.699 195.066 221.694C197.155 222.425 199.204 224.095 201.211 224.999C202.552 225.599 205.604 226.191 206.221 226.561C207.331 227.227 207.208 230.516 206.854 231.709C203.325 234.036 201.162 231.191 198.291 229.974C195.156 228.642 188.624 225.714 185.704 224.9C182.241 223.938 183.088 225.575 180.892 227.104L167.902 234.134C167.195 234.677 166.816 236.256 167.869 236.585C169.029 236.946 175.824 233.082 177.469 232.317C178.893 231.651 181.114 231.232 182.29 230.557C183.014 230.138 183.105 229.456 183.508 229.201C184.19 228.765 189.488 229.891 190.591 230.27C197.419 232.621 200.405 237.489 208.894 234.587C209.832 234.266 210.869 232.81 211.765 233.74C212.555 234.998 210.819 239.413 210.326 240.951C204.164 248.368 199.056 258.202 192.861 265.38C192.071 266.301 187.168 270.889 186.387 271.226C184.24 272.155 174.253 268.143 178.506 274.384C180.118 276.752 183.409 280.189 185.696 281.981C187.539 283.429 189.241 284.177 191.002 285.303C191.948 285.912 192.384 287.4 193.075 287.754C193.815 288.132 194.835 287.894 195.699 288.42C196.744 289.053 197.46 291.52 198.439 292.251C199.113 292.753 200.355 292.876 201.26 293.542C205.086 296.363 208.911 298.953 212.35 301.757C216.093 304.807 219.424 306.953 223.439 309.56C224.994 310.571 225.035 311.566 227.338 311.821C231.715 312.298 232.875 310.678 236.017 310.177C240.451 309.47 246.637 309.996 251.187 309.733C256.073 309.453 256.279 309.264 256.731 304.602C259.051 280.715 256.197 252.068 250.38 228.814C248.431 221.011 243.561 208.546 239.151 201.844C238.008 200.109 237.037 198.942 234.783 199.271C230.579 199.895 228.506 213.241 223.134 203.094C227.346 195.85 231.155 188.532 234.339 180.762C238.222 171.306 242.73 160.09 245.955 150.478C252.914 129.749 245.938 113.279 229.362 100.509L229.354 100.517ZM154.608 135.809C157.603 138.835 159.708 139.353 164.06 138.835C171.316 137.979 183.096 128.984 182.973 121C182.891 115.376 178.983 121.271 177.642 122.431C176.63 123.302 173.973 125.152 172.805 125.802C169.506 127.644 159.898 130.711 156.327 130.201C153.925 129.855 152.593 127.759 150.339 127.364C151.211 130.242 152.51 133.679 154.616 135.8L154.608 135.809ZM140.878 121.214C140.327 121.107 139.932 121.386 139.628 121.806C138.994 122.677 139.101 130.086 139.282 131.64C139.636 134.69 142.129 144.393 143.14 147.493C144.868 152.788 147.747 156.916 151.967 160.444C156.484 164.209 161.856 167.498 168.025 166.627C169.046 161.521 171.209 157.409 176.556 156.061C176.671 152.55 175.594 149.787 176.844 146.284C177.058 145.684 178.448 143.086 178.81 142.699C179.822 141.606 185.169 139.731 183.434 137.215C182.183 135.406 178.629 139.353 177.593 140.043C170.024 145.076 166.528 147.583 157.224 143.711C151.852 141.482 144.49 134.6 142.754 129.017C141.964 126.468 141.651 123.771 140.903 121.214H140.878ZM140.598 159.284C140.179 158.807 139.677 156.513 138.427 157.352C138.262 157.467 137.596 160.411 137.127 161.192C136.436 162.359 133.968 165.838 133.079 166.997C131.796 168.674 129.731 169.332 128.785 170.508C127.543 172.054 127.379 175.187 125.692 176.864C124.754 177.793 123.529 177.719 122.788 178.484C121.957 179.339 121.678 181.304 120.361 182.628C119.267 183.73 117.507 184.199 116.775 184.996C115.894 185.95 115.195 188.326 113.377 188.82C112.39 189.091 111.814 188.071 110.786 188.219C109.757 188.367 108.951 189.79 107.849 190.242C106.747 190.694 103.259 191.311 102.14 190.958C100.939 190.579 101.605 188.976 99.6307 189.395C98.479 189.642 98.2651 190.711 97.4672 190.958C95.1884 191.656 93.8229 189.091 91.7087 188.663C90.2526 188.376 88.3029 188.918 87.0854 188.359C86.4684 188.08 84.1321 184.906 83.7866 184.051C83.1038 184.256 82.8405 184.717 83.0298 185.415C83.1038 185.687 85.6704 189.593 86.0735 190.193C88.3605 193.515 93.4198 201.186 96.1592 203.522C98.3803 205.421 99.7953 204.155 102.066 204.599C103.143 204.813 103.472 206.145 104.739 205.824C105.118 201.902 105.908 200.652 109.922 200.117C111.148 199.953 112.949 200.339 113.92 200.002C114.29 199.879 116.149 197.272 117.095 196.606C117.885 196.039 121.982 193.909 122.805 193.696C124.623 193.227 127.156 193.926 128.563 193.293C129.97 192.66 133.022 188.507 135.136 187.545C137.974 186.262 140.829 188.228 142.005 187.224C142.466 186.822 147.344 177.81 147.945 176.527C148.71 174.899 151.046 169.102 150.248 167.712C150.166 167.564 147.978 166.257 147.459 165.78C145.271 163.765 142.54 161.455 140.607 159.284H140.598ZM82.347 207.468C83.9429 207.205 86.7317 207.468 88.5086 207.468C90.4336 207.468 87.3157 204.188 87.143 203.908C85.6211 201.474 83.7784 196.352 81.6066 195.069C76.5802 192.092 72.9441 191.196 67.1527 191.87C64.2652 192.207 59.8476 193.079 57.6923 195.143C56.3514 196.426 56.9766 197.856 54.3194 198.341C49.688 199.188 47.1707 196.434 49.9265 192.306C53.1513 187.479 63.1629 183.73 68.7898 184.067C70.0731 184.141 74.6717 185.613 75.1324 184.215C74.8856 182.677 73.7585 178.928 72.0557 178.714C69.7523 179.512 66.9141 178.739 64.7753 179.224C62.0359 179.849 62.2086 183.681 57.2892 183.689C55.7838 183.689 55.2902 183.269 55.0598 181.773C54.5333 178.328 56.7792 176.075 59.8723 175.137C62.2497 174.414 66.9224 174.907 66.0586 171.388C64.7341 171.018 60.6374 167.408 60.1849 166.388C59.7325 165.369 59.28 159.284 56.2609 162.08C53.0032 165.097 49.2849 173.353 46.9732 177.44C41.914 186.394 36.6079 195.357 31.5404 204.311C30.5861 205.997 27.6411 209.771 27.929 211.777C28.11 213.035 29.9938 211.3 30.6191 211.185C32.0998 210.922 34.033 211.481 35.4398 211.078C36.2459 210.848 38.4259 208.801 39.9725 208.217C43.222 206.983 49.4494 206.523 52.7811 207.477C53.9164 207.806 53.5215 208.644 54.4182 208.743C58.0049 209.146 61.6328 206.63 65.5979 208.208C66.5193 208.57 67.7203 209.738 68.436 209.82C69.5877 209.952 72.8536 208.652 74.5483 208.669C75.8892 208.677 77.5509 209.615 78.571 209.45C79.4842 209.302 81.1048 207.674 82.3552 207.468H82.347ZM148.282 192.265C155.019 191.903 153.037 186.739 154.238 182.003C155.974 175.137 159.067 172.72 165.689 176.634L166.594 175.433C167.186 173.23 162.925 173.517 161.724 173.271C160.161 172.942 158.08 171.618 156.862 172.728L148.274 192.273L148.282 192.265ZM110.481 172.958C108.754 172.67 110.243 174.899 110.383 175.729C110.778 178.056 110.391 181.946 112.941 182.817L110.473 172.958H110.481ZM176.383 283.281C169.21 275.65 158.129 262.157 153.613 252.865C152.387 250.357 152.527 246.994 153.325 244.347C155.381 237.555 160.424 229.489 162.843 222.244C167.269 209.006 167.408 198.234 162.843 184.897C162.547 184.026 161.378 181.724 160.58 181.378C157.997 180.252 158.4 183.861 158.524 185.514C158.721 188.088 159.429 192.66 159.865 195.258C160.342 198.054 162.045 200.085 161.387 203.555C160.827 206.515 156.525 207.411 156.13 208.57C156.048 208.817 156.007 213.413 156.081 213.808C156.385 215.576 159.347 219.087 153.991 217.969C148.356 216.793 149.977 208.488 147.838 206.465C146.406 205.109 138.262 203.119 137.374 201.318C135.819 198.152 139.949 195.192 142.918 195.973C141.8 193.671 139.118 193.548 137.168 194.954C136.518 195.422 136.312 196.278 135.728 196.796C134.034 198.276 126.186 206.202 125.273 206.49C123.742 206.959 122.204 206.087 121.834 204.533C121.628 203.67 122.492 202.296 120.954 202.148C119.489 203.398 117.392 210.387 116.125 210.914C114.759 211.481 111.658 211.654 111.863 209.541C111.896 209.187 113.303 205.692 111.913 206.268C110.045 207.625 107.874 215.51 106.072 216.053C102.461 217.146 102.757 210.831 101.021 209.327C99.7953 208.776 99.4251 213.348 99.3839 214.269C99.17 218.783 101.547 222.047 102.962 226.29C104.139 229.817 105.003 236.116 106.689 238.994C107.503 240.383 114.118 246.953 115.615 248.137C121.809 253.063 125.816 251.287 128.752 260.463C130.809 266.893 132.002 270.914 134.601 277.212C138.797 287.367 142.342 296.527 145.485 306.995C148.298 316.36 163.674 340.312 170.049 348.568C174.072 353.773 179.287 358.155 183.582 362.966C184.988 364.536 186.593 366.337 188.082 367.488C188.46 367.776 188.838 368.878 189.135 368.878L190.163 368.261C191.866 370.111 193.84 371.608 196.135 372.586L196.333 373.639L195.485 374.042L196.111 375.061L197.682 373.893L200.429 376.5C197.945 379.896 202.247 378.761 202.897 381.228L203.72 381.022L203.3 379.592C205.283 380.052 206.953 379.666 207.825 381.853C205.604 382.634 208.417 383.678 209.742 383.843C211.099 384.904 213.913 388.398 215.196 388.85C215.739 389.039 216.29 389.081 216.858 389.031L216.446 387.806H218.503V389.031L217.269 389.237C218.783 390.783 220.987 392.542 223.019 393.348C224.237 393.833 228.547 395.116 229.781 395.215C236.239 395.724 239.439 390.848 242.138 385.775C250.627 369.815 255.259 346.496 255.9 328.472C255.958 326.844 256.106 317.873 255.686 317.158C255.349 316.59 254.272 316.409 253.638 316.335C250.553 315.982 244.046 316.072 240.879 316.335C238.131 316.557 235.31 317.865 232.471 317.577C232.282 320.282 233.73 323.497 235.17 325.767C236.527 327.905 240.961 331.284 239.48 333.825C238.501 335.494 235.787 337.788 233.689 337.106C231.591 336.423 226.236 328.719 225.01 326.482C223.899 324.468 223.332 321.968 221.983 320.068C218.454 315.118 208.812 310.349 203.753 306.666C194.111 299.652 184.561 292.013 176.375 283.314L176.383 283.281ZM95.3941 261.367L109.642 255.299L111.329 253.244C111.411 252.421 110.835 251.509 109.955 251.509C108.787 251.509 103.653 253.778 102.173 254.403C94.3658 257.684 84.9054 264.27 77.1478 266.342C73.7174 267.263 72.9277 267.173 69.8181 265.594C68.0987 264.722 63.8786 261.121 62.1922 262.469C61.8796 262.716 59.2306 268.291 58.4985 269.458C53.9739 276.678 50.7656 278.668 49.6221 287.655C48.6597 295.179 48.8406 301.592 48.9147 309.141C48.9229 310.325 47.911 313.014 48.8571 313.68L138.846 310.16C139.019 308.409 137.415 307.192 136.633 305.597C134.593 301.395 133.993 297.514 132.462 293.345C130.579 288.222 128.078 283.363 126.219 278.232C125.026 274.951 125.371 271.054 121.53 269.779C117.943 268.587 112.818 267.09 109.124 266.169C104.402 264.994 99.096 265.059 94.9087 262.329C95.2131 262.116 95.1967 261.565 95.4106 261.392L95.3941 261.367Z" fill="url(#paint0_linear_667_2651)"/>
<path d="M115.022 146.284C114.389 149.45 114.233 154.063 111.938 156.554C110.588 158.026 104.731 162.088 102.855 162.672C98.8245 163.93 92.7945 164.489 88.8376 162.77C85.1851 161.184 82.4292 157.927 88.5086 157.36C92.301 157.006 95.5175 158.199 99.1947 156.957C101.951 156.028 106.525 152.723 108.236 150.387C108.647 149.828 109.009 149.557 108.828 148.726C107.824 147.756 102.23 152.599 100.889 153.315C95.4517 156.234 85.8926 156.48 79.8955 155.271C76.4486 154.573 77.1643 151.078 79.9531 150.461C83.7619 149.614 88.706 150.7 92.9097 149.869C96.8173 149.096 106.385 144.549 108.449 141.145C108.869 140.463 108.03 138.497 109.815 137.206C112.069 135.578 114.973 138.514 116.38 140.142C119.234 143.439 122.245 148.463 114.998 146.284H115.022Z" fill="url(#paint1_linear_667_2651)"/>
<path d="M80.3891 113.049C81.6477 112.868 85.5059 117.028 86.1887 118.196C87.8175 120.992 88.2782 128.556 90.3842 130.448C92.2187 132.092 96.916 127.315 99.1783 130.694C100.124 132.108 98.3392 134.649 97.1463 135.595C95.065 137.239 87.6037 140.931 85.4072 138.695C84.6833 137.955 82.2565 130.439 81.73 128.819C80.8168 126.032 78.2995 118.919 78.061 116.444C77.8718 114.512 78.7109 113.789 80.3973 113.049H80.3891Z" fill="url(#paint2_linear_667_2651)"/>
<path d="M105.85 115.334C104.32 116.584 100.988 115.482 100.042 113.78C97.5412 109.258 98.3392 102.647 104.509 106.849C104.731 109.406 108.318 113.312 105.842 115.334H105.85Z" fill="url(#paint3_linear_667_2651)"/>
<path d="M63.9526 118.829C64.9316 118.615 65.4827 118.64 66.3465 119.133C66.7085 119.347 70.2376 124.067 70.4186 124.511C70.8711 125.613 70.4762 127.471 69.4068 127.981C64.5531 130.291 58.5314 120.013 63.9526 118.821V118.829Z" fill="url(#paint4_linear_667_2651)"/>
<path d="M109.363 105.706C109.881 105.064 114.907 103.617 116.01 103.527C117.663 103.387 120.32 103.116 120.312 105.393C120.304 108.625 110.259 111.758 109.042 109.291C108.647 108.518 108.877 106.298 109.354 105.698L109.363 105.706Z" fill="url(#paint5_linear_667_2651)"/>
<path d="M57.3961 124.56C58.8275 124.281 60.2918 125.761 60.3823 127.126C60.2672 129.502 55.8084 130.464 54.6156 132.495C50.3132 133.745 51.9338 128.704 53.4474 126.805C53.941 126.188 56.664 124.7 57.3961 124.552V124.56Z" fill="url(#paint6_linear_667_2651)"/>
<path d="M174.672 90.5105C174.903 90.3131 177.149 89.5895 177.552 89.6471C179.32 89.902 180.184 92.3112 180.332 93.8735C180.431 94.8438 180.225 99.58 179.83 100.18C178.819 101.726 176.976 99.2593 176.087 99.4813C175.314 99.6786 173.948 102.113 172.895 102.902C170.822 104.448 164.941 107.416 162.44 107.646C158.384 108.016 150.018 106.438 146.661 104.135C146.061 103.724 142.285 100.361 142.178 99.9582C141.684 98.141 143.502 96.7432 145.189 96.5541C150.001 95.9949 149.499 98.7659 152.576 100.279C153.078 100.526 157.167 101.923 157.512 101.932C158.672 101.965 164.175 100.049 165.928 99.6293C167.68 99.21 170.271 99.4649 171.571 98.0917C171.875 97.771 172.278 97.0968 171.711 96.7596C170.386 95.9949 164.43 97.8286 162.456 97.8286C158.261 97.845 146.192 94.852 142.803 92.3934C142.038 91.8343 140.023 89.7787 140.023 88.9728C140.023 86.1032 144.086 86.4814 145.921 87.2297C146.801 87.5832 147.402 88.6439 148.529 89.1373C152.823 91.0038 157.224 90.716 161.592 91.2752C165.294 91.7521 169.021 93.9886 172.953 92.6895C174.426 92.2043 174.154 90.9627 174.681 90.5105H174.672Z" fill="url(#paint7_linear_667_2651)"/>
<path d="M159.676 62.1672C160.177 62.5948 161.041 65.1767 161.049 65.9578C161.066 68.1615 158.82 71.6808 159.569 73.1526C160.235 74.4682 166.882 75.2823 167.186 77.4859C167.853 83.2088 155.472 82.107 154.863 78.6864C154.18 74.8958 154.197 66.5745 156.303 63.3102C156.969 62.2824 158.598 61.2545 159.676 62.1672Z" fill="url(#paint8_linear_667_2651)"/>
<path d="M139.768 60.7118C138.69 59.4456 140.837 53.1553 142.408 52.6948C143.823 52.2837 146.201 54.216 146.546 55.3754C147.813 59.6265 142.984 64.4942 139.768 60.7201V60.7118Z" fill="url(#paint9_linear_667_2651)"/>
<path d="M183.902 58.8618C186.839 58.2122 193.47 61.3861 191.027 64.7573C188.748 67.8984 185.186 63.7049 182.381 63.4911C181.007 61.8712 181.829 59.314 183.902 58.8535V58.8618Z" fill="url(#paint10_linear_667_2651)"/>
<path d="M174.417 55.5234C175.783 55.0383 178.86 58.4589 179.016 59.4785C179.222 60.8352 177.469 65.5303 175.989 65.7687C169.959 66.739 173.619 55.7947 174.417 55.5234Z" fill="url(#paint11_linear_667_2651)"/>
<path d="M187.547 92.0645C188.238 91.9248 190.755 94.9507 190.928 95.6496C191.224 96.8665 188.443 100.953 187.325 101.726C180.554 106.421 184.914 93.9228 187.547 92.0645Z" fill="url(#paint12_linear_667_2651)"/>
<path d="M128.826 52.6784C130.949 52.037 139.216 52.9662 138.344 56.4114C137.826 58.4506 135.745 59.2729 133.779 58.6891C133.483 58.5986 128.711 55.5727 128.53 55.3178C128.004 54.6107 127.79 53.0155 128.826 52.6702V52.6784Z" fill="url(#paint13_linear_667_2651)"/>
<path d="M63.9691 51.0421C65.8941 50.8201 65.9928 54.4462 65.0796 55.8852C64.1665 57.3241 57.1411 62.3152 55.3642 63.0059C53.0032 63.9269 50.7327 63.8693 48.3553 64.2064C47.3845 64.3462 46.3151 65.7523 45.147 64.3627C44.3819 63.0635 44.5958 61.7232 45.7886 60.827C47.3516 59.6511 52.7729 58.5822 55.3148 57.209C56.2609 56.6992 57.7087 55.7618 58.5232 55.0794C60.4811 53.4184 61.024 51.3874 63.9773 51.0503L63.9691 51.0421Z" fill="url(#paint14_linear_667_2651)"/>
<defs>
<linearGradient id="paint0_linear_667_2651" x1="139.497" y1="0" x2="139.497" y2="403.99" gradientUnits="userSpaceOnUse">
<stop stop-color="#E23B3D"/>
<stop offset="0.5" stop-color="#E84D00"/>
<stop offset="1" stop-color="#FFA171"/>
</linearGradient>
<linearGradient id="paint1_linear_667_2651" x1="139.497" y1="0" x2="139.497" y2="403.99" gradientUnits="userSpaceOnUse">
<stop stop-color="#E23B3D"/>
<stop offset="0.5" stop-color="#E84D00"/>
<stop offset="1" stop-color="#FFA171"/>
</linearGradient>
<linearGradient id="paint2_linear_667_2651" x1="139.497" y1="0" x2="139.497" y2="403.99" gradientUnits="userSpaceOnUse">
<stop stop-color="#E23B3D"/>
<stop offset="0.5" stop-color="#E84D00"/>
<stop offset="1" stop-color="#FFA171"/>
</linearGradient>
<linearGradient id="paint3_linear_667_2651" x1="139.497" y1="0" x2="139.497" y2="403.99" gradientUnits="userSpaceOnUse">
<stop stop-color="#E23B3D"/>
<stop offset="0.5" stop-color="#E84D00"/>
<stop offset="1" stop-color="#FFA171"/>
</linearGradient>
<linearGradient id="paint4_linear_667_2651" x1="139.497" y1="0" x2="139.497" y2="403.99" gradientUnits="userSpaceOnUse">
<stop stop-color="#E23B3D"/>
<stop offset="0.5" stop-color="#E84D00"/>
<stop offset="1" stop-color="#FFA171"/>
</linearGradient>
<linearGradient id="paint5_linear_667_2651" x1="139.497" y1="0" x2="139.497" y2="403.99" gradientUnits="userSpaceOnUse">
<stop stop-color="#E23B3D"/>
<stop offset="0.5" stop-color="#E84D00"/>
<stop offset="1" stop-color="#FFA171"/>
</linearGradient>
<linearGradient id="paint6_linear_667_2651" x1="139.497" y1="0" x2="139.497" y2="403.99" gradientUnits="userSpaceOnUse">
<stop stop-color="#E23B3D"/>
<stop offset="0.5" stop-color="#E84D00"/>
<stop offset="1" stop-color="#FFA171"/>
</linearGradient>
<linearGradient id="paint7_linear_667_2651" x1="139.497" y1="0" x2="139.497" y2="403.99" gradientUnits="userSpaceOnUse">
<stop stop-color="#E23B3D"/>
<stop offset="0.5" stop-color="#E84D00"/>
<stop offset="1" stop-color="#FFA171"/>
</linearGradient>
<linearGradient id="paint8_linear_667_2651" x1="139.497" y1="0" x2="139.497" y2="403.99" gradientUnits="userSpaceOnUse">
<stop stop-color="#E23B3D"/>
<stop offset="0.5" stop-color="#E84D00"/>
<stop offset="1" stop-color="#FFA171"/>
</linearGradient>
<linearGradient id="paint9_linear_667_2651" x1="139.497" y1="0" x2="139.497" y2="403.99" gradientUnits="userSpaceOnUse">
<stop stop-color="#E23B3D"/>
<stop offset="0.5" stop-color="#E84D00"/>
<stop offset="1" stop-color="#FFA171"/>
</linearGradient>
<linearGradient id="paint10_linear_667_2651" x1="139.497" y1="0" x2="139.497" y2="403.99" gradientUnits="userSpaceOnUse">
<stop stop-color="#E23B3D"/>
<stop offset="0.5" stop-color="#E84D00"/>
<stop offset="1" stop-color="#FFA171"/>
</linearGradient>
<linearGradient id="paint11_linear_667_2651" x1="139.497" y1="0" x2="139.497" y2="403.99" gradientUnits="userSpaceOnUse">
<stop stop-color="#E23B3D"/>
<stop offset="0.5" stop-color="#E84D00"/>
<stop offset="1" stop-color="#FFA171"/>
</linearGradient>
<linearGradient id="paint12_linear_667_2651" x1="139.497" y1="0" x2="139.497" y2="403.99" gradientUnits="userSpaceOnUse">
<stop stop-color="#E23B3D"/>
<stop offset="0.5" stop-color="#E84D00"/>
<stop offset="1" stop-color="#FFA171"/>
</linearGradient>
<linearGradient id="paint13_linear_667_2651" x1="139.497" y1="0" x2="139.497" y2="403.99" gradientUnits="userSpaceOnUse">
<stop stop-color="#E23B3D"/>
<stop offset="0.5" stop-color="#E84D00"/>
<stop offset="1" stop-color="#FFA171"/>
</linearGradient>
<linearGradient id="paint14_linear_667_2651" x1="139.497" y1="0" x2="139.497" y2="403.99" gradientUnits="userSpaceOnUse">
<stop stop-color="#E23B3D"/>
<stop offset="0.5" stop-color="#E84D00"/>
<stop offset="1" stop-color="#FFA171"/>
</linearGradient>
</defs>
</svg>
