<svg width="145" height="145" viewBox="0 0 145 145" fill="none" xmlns="http://www.w3.org/2000/svg">
<rect width="145" height="145" fill="#FFCFCB"/>
<path d="M112.35 48.6224C110.003 47.071 107.493 47.5949 104.777 48.1038C106.285 44.3125 107.197 40.7266 105.984 36.9521C105.194 34.4884 104.065 32.244 101.433 31.29C99.6402 30.6396 98.3268 31.159 96.4124 32.0971C92.7795 33.8795 91.6826 36.6008 90.6702 39.8673C90.2695 41.1567 90.338 42.6355 89.3247 43.8621C86.4514 40.9107 83.197 37.1778 79.1581 39.731C73.4096 43.3691 76.6631 48.0454 79.638 52.2402C78.4146 51.9198 77.5126 51.5004 76.5999 51.118C74.5279 50.2428 71.1524 50.8455 69.8817 52.2977C68.1731 54.2429 68.2835 56.4501 69.7812 59.0873C70.7989 60.875 72.7026 61.8759 73.7524 63.8158C66.5962 61.6139 63.0577 65.8087 63.3159 71.439C63.4904 75.2037 65.6995 77.7303 68.8053 79.5445C72.7079 81.8251 76.9267 82.9942 81.6681 82.6641C80.5337 85.2695 79.0841 87.4607 77.2641 89.5165C76.6426 88.6829 76.2046 87.928 75.6035 87.3404C74.9544 86.7111 74.4905 85.5315 73.3357 85.8624C72.1336 86.2076 71.8852 87.2412 71.6697 88.4625C70.7784 93.4379 71.2103 98.3814 71.5691 103.614C68.7002 101.072 66.3486 98.3664 64.2285 95.43C63.6275 94.6016 62.4771 94.3078 64.0754 92.9087C65.3567 91.7865 66.2213 89.7103 65.9951 87.5554C65.8838 86.5067 65.8367 85.7465 64.6186 85.6208C65.5045 85.3067 66.1527 84.9553 65.9684 83.7385C65.346 79.6286 63.8484 75.9533 61.048 72.8231C60.1309 71.7956 58.7864 71.6178 57.7526 71.8479C56.872 72.0417 56.6663 73.3789 56.4072 74.417C55.7429 77.0701 56.059 79.7853 55.6165 82.5172C52.6479 76.9701 49.3783 71.6275 47.6429 65.3893C49.6045 65.6406 50.8653 64.5972 51.9356 63.3131C55.3102 59.2758 56.4125 54.5314 55.8641 49.4295C55.7011 47.8994 54.6727 47.0126 52.8847 48.0507C51.9462 48.5967 51.2286 49.2676 50.665 50.1428C48.9981 52.7438 47.342 55.3545 45.6235 58.0696C45.0536 56.8589 46.0981 54.9244 43.9406 54.9403C40.1911 54.9659 44.0777 58.1802 42.2114 59.1395C39.5322 57.0005 36.2047 56.1147 33.1773 54.6305C31.8114 53.9597 30.4669 54.6677 30.1927 56.0934C29.9451 57.3731 29.808 58.8094 30.604 60.1148C33.3572 64.6441 37.1539 67.4858 42.6646 67.4601C44.1997 67.4548 45.4329 67.4911 45.8924 69.3106C46.952 73.5258 49.3828 77.1489 51.1396 81.065C51.7246 82.365 52.4155 82.9473 53.8028 82.7163C53.8865 82.7004 54.0031 82.8685 54.2346 83.0571C53.5436 83.1571 52.9694 83.2402 52.4102 83.3243C52.4155 84.0535 53.5917 84.242 53.175 85.1279C52.8482 85.3217 52.5945 85.1854 52.2463 85.0704C49.2457 84.1164 46.2298 83.1464 43.0234 83.2199C41.1509 83.2615 40.1439 84.3624 40.8081 86.0925C41.995 89.1758 43.9353 91.8547 46.968 93.3697C50.559 95.1627 54.3352 96.3946 58.4694 95.2884C59.5245 95.0052 60.3152 95.4822 60.9429 96.3211C63.0835 99.1734 65.3354 101.931 68.426 104.778C63.2741 104.332 58.9075 105.176 54.5934 106.293C53.6549 106.535 52.4368 106.697 52.273 107.971C52.1092 109.25 52.5891 110.383 53.7974 110.944C54.5569 111.295 55.2319 111.783 56.0065 112.129C61.8708 114.75 67.8356 114.184 73.8477 113.046C74.9651 112.836 75.7825 111.74 77.038 111.803C79.1082 111.905 79.6798 111.043 78.752 109.219C78.541 108.799 78.5775 108.432 78.7307 108.007C80.3441 103.567 79.8642 99.0372 79.0414 94.56C78.8206 93.3591 78.931 92.5936 79.6166 91.6661C81.4046 89.2333 83.0919 86.7271 84.8264 84.2474C88.8662 88.9555 93.4963 92.2166 100.078 91.6184C104.528 91.2148 108.875 87.8492 108.743 82.9836C108.621 78.533 106.559 75.7223 102.931 73.4842C105.826 72.6762 108.763 72.5346 111.258 70.7054C113.32 69.1956 113.051 67.2026 112.724 65.3946C112.455 63.9051 110.847 63.3025 109.243 63.3078C107.366 63.3131 105.483 63.3078 102.899 63.3078C106.032 61.1263 109.227 60.3661 111.426 58.0598C111.775 57.6926 112.418 57.4775 112.265 56.8908C112.107 56.2819 111.638 56.5448 111.231 56.7439C110.62 57.0474 110.773 56.4766 110.768 56.2509C110.768 56.0147 110.652 55.4067 111.184 55.6792C112.824 56.5182 113.721 55.3598 113.805 54.2589C113.958 52.3137 114.575 50.0906 112.355 48.6277L112.35 48.6224ZM35.1238 59.4121C36.0302 59.3546 36.7479 58.1377 37.8921 58.7829C37.2536 60.0732 36.162 59.5537 35.1238 59.4121ZM107.155 70.8939C107.071 70.831 107.155 70.3222 107.276 70.2593C107.883 69.9558 108.447 70.0602 109.038 70.9151C108.357 71.2717 107.735 71.3293 107.155 70.8939ZM110.809 53.5615C110.519 54.442 108.938 55.1022 110.135 56.4554C110.467 56.8324 109.697 56.9377 109.281 57.0165C105.605 57.7032 102.514 59.5271 99.7248 61.929C98.8281 62.6945 98.9652 63.7326 99.276 64.5609C99.6036 65.4415 100.394 65.9973 101.549 65.945C103.653 65.8557 105.768 65.9972 107.867 65.8866C108.932 65.8291 109.676 66.3689 109.961 67.0982C110.208 67.7221 109.275 68.1991 108.769 68.6079C107.044 69.9921 104.887 70.0443 102.83 70.3797C101.365 70.6213 99.7194 70.7735 99.2813 72.4558C98.8174 74.2338 100.215 75.3604 101.444 76.2259C103.231 77.4896 104.835 78.7525 105.488 80.9756C106.327 83.8066 105.325 86.4332 102.747 87.7439C98.4746 89.9095 94.6779 88.6041 91.2026 85.9828C90.0949 85.1491 88.9134 84.373 88.0755 83.0677C86.5351 80.6773 86.8147 78.3959 89.3568 77.0073C92.6949 75.1825 95.3849 72.5399 98.285 70.1655C98.9759 69.5991 99.6615 68.8805 98.8067 67.9947C98.0428 67.1973 97.1933 67.3389 96.2655 67.9734C94.5987 69.1062 93.3485 70.8257 91.013 71.6859C92.3255 67.5336 93.7919 63.9211 94.5568 60.1723C95.2478 56.7908 96.3394 53.504 96.814 50.0853C96.8772 49.6295 96.7819 48.6852 95.7856 48.6277C94.9308 48.5808 94.2505 48.7171 93.8766 49.6136C93.2595 51.0915 93.5756 52.8119 92.2943 54.7775C91.208 53.4774 90.306 52.1774 89.1725 51.1234C88.608 50.5995 87.5216 49.9906 86.804 50.7508C86.0765 51.5163 86.3401 52.5234 87.1789 53.2624C87.3106 53.3774 87.421 53.519 87.5689 53.6137C92.2257 56.5023 91.7404 60.482 90.2009 64.8804C88.534 69.6513 86.5939 74.3019 84.326 78.8056C83.6404 80.1685 81.7367 80.0738 80.5391 79.9747C75.7353 79.5658 71.0678 78.4852 67.6611 74.6789C65.9319 72.7497 66.0058 70.4168 66.9862 68.2044C67.7831 66.4008 69.0795 65.4778 71.3055 66.3743C72.6028 66.8991 73.9634 67.4283 75.4504 67.5592C76.542 67.6592 77.4173 67.9 78.1082 66.7468C78.752 65.6769 78.8785 64.7069 78.1403 63.6538C77.0585 62.1069 76.0202 60.513 74.2635 59.6218C72.8192 58.8882 72.5343 57.3465 71.8113 56.1306C71.3999 55.4385 71.9751 54.7934 72.5655 54.3739C73.4514 53.734 74.4852 53.2517 75.5083 53.8969C77.444 55.1182 79.2631 56.5235 81.2042 57.7342C82.2531 58.39 83.392 59.2546 84.6946 58.0386C85.8602 56.9536 85.8655 55.4067 85.1488 54.4996C84.0678 53.142 84.2467 50.4941 81.547 50.5941C81.4571 50.5941 81.23 50.1747 81.2728 50.0012C81.9103 47.3277 77.1377 45.44 80.1651 42.4311C81.2095 41.3983 82.1685 41.6709 83.2344 42.462C85.6652 44.2709 87.9063 46.2737 89.5206 48.8534C90.0638 49.7233 90.728 50.4207 91.6407 49.9543C92.5053 49.5136 92.6424 48.7171 92.5997 47.4533C92.4367 42.8346 93.4171 38.3725 96.9191 34.9229C97.8843 33.9689 99.3445 33.4397 100.484 34.137C102.198 35.1901 103.137 36.9521 103.374 39.0283C103.902 43.6054 102.082 47.5374 99.8146 51.2596C99.2394 52.2083 99.2288 52.8323 99.7408 53.4615C100.389 54.2589 101.159 53.8916 101.998 53.4358C104.191 52.2402 106.105 50.3579 108.958 50.7092C110.831 50.9402 111.475 51.6163 110.825 53.5668L110.809 53.5615Z" fill="#E84D00"/>
</svg>
