<svg width="145" height="145" viewBox="0 0 145 145" fill="none" xmlns="http://www.w3.org/2000/svg">
<rect width="145" height="145" fill="#FFCFCB"/>
<path d="M116.879 57.3825C114.961 55.0665 112.224 54.5745 109.364 54.5985C106.308 54.6215 106.308 54.6155 104.199 52.3645C104.91 52.1755 106.42 53.5145 105.81 51.0495C104.898 47.3885 102.766 45.4095 99.1586 45.0665C94.7576 44.6395 91.0976 46.3045 88.1066 49.0055C85.3236 51.5175 82.5756 51.3165 79.5246 50.4215C76.2916 49.4735 73.1696 50.8185 72.6846 54.0115C72.3176 56.4165 71.9086 59.0945 73.7796 61.5705C71.7846 61.5595 70.4926 63.0875 68.7276 63.4905C67.3306 59.0415 65.0146 57.7265 60.5546 58.7395C57.1846 59.5035 55.2836 62.2105 53.0036 64.4085C52.0266 65.3565 51.3216 66.0195 49.5566 65.4155C46.2636 64.2905 42.8466 66.2275 41.4666 69.4025C39.9916 72.8035 40.2516 76.1745 42.0166 79.3615C42.7396 80.6645 42.8526 81.1145 41.3536 82.0925C34.1816 86.7725 28.7856 93.0045 25.7006 101.115C24.5626 104.095 24.8176 107.999 26.4166 109.368C28.7916 111.4 32.0846 111.216 35.4726 109.225C37.0476 108.295 38.0966 106.927 39.3756 105.754C39.5706 105.576 39.2396 104.83 39.9326 105.203C40.2466 105.369 40.5716 105.641 40.2576 106.121C38.5646 108.752 39.3106 111.494 40.0206 114.178C40.7376 116.874 42.5796 118.141 45.4046 117.928C47.8866 117.738 49.8586 116.548 51.1916 114.551C54.0576 110.256 55.4846 105.458 55.4796 100.019C59.1156 101.791 62.5446 102.3 65.2396 98.8695C67.9346 95.4395 66.6846 91.8845 65.1096 88.3005C68.5266 88.5025 71.8436 88.5495 74.3136 85.6945C74.6746 85.2735 75.0656 85.4275 75.5746 85.7235C78.5536 87.4595 81.2956 86.8135 83.6766 84.5625C85.9506 82.4125 88.6996 82.0445 91.5246 82.4775C95.2796 83.0515 97.2276 82.5015 98.8626 79.3965C99.5736 78.0515 99.9347 78.1115 100.871 79.0475C103.18 81.3575 106.035 81.0795 108.724 80.1785C111.472 79.2605 112.42 76.6425 112.745 74.0595C113.19 70.5465 114.244 67.4415 116.56 64.6815C118.686 62.1395 118.745 59.6155 116.885 57.3765L116.879 57.3825ZM50.2436 69.2075C52.4466 69.7755 54.0816 68.6445 55.3786 67.0035C57.0076 64.9355 58.7726 63.1115 61.2416 61.9795C62.6696 61.3285 63.8066 61.8555 64.7006 62.5955C65.6486 63.3775 65.3526 64.5805 64.7186 65.6465C63.2196 68.1465 61.4846 69.8355 58.1856 70.1015C53.3946 70.4925 50.5926 74.2845 47.6966 77.6555C47.1996 78.2355 46.7606 78.8575 46.1446 79.6575C44.9196 77.5605 44.0306 75.9725 44.0956 73.8875C44.2316 69.3375 45.8376 68.0695 50.2376 69.2135L50.2436 69.2075ZM50.6586 108.396C49.8226 110.393 48.6266 112.069 47.0926 113.586C46.1686 114.498 45.1026 114.622 44.1436 114.291C43.2426 113.983 43.0176 112.922 42.9466 111.909C42.6326 107.395 43.4736 103.106 45.3336 99.0055C45.7716 98.0465 46.5186 97.0985 45.1026 96.3395C45.0906 96.3395 45.0846 96.3395 45.0726 96.3395C45.2626 96.7305 45.1976 97.2525 44.7766 97.1515C41.5906 96.3695 40.4716 98.9825 39.2036 100.807C37.5806 103.141 35.4846 104.913 33.4296 106.755C32.2626 107.804 30.6636 107.502 29.3956 106.951C28.0516 106.37 27.7556 104.847 28.2296 103.645C31.4746 95.4455 37.1666 89.2605 44.3566 84.1305C45.7306 88.7095 45.6886 92.7375 42.0286 96.1505C43.2726 96.8015 44.1606 96.7845 45.0726 96.3455C45.0726 96.3335 45.0676 96.3285 45.0616 96.3165C45.0786 96.3225 45.0906 96.3335 45.1026 96.3395C47.8446 96.1505 47.8626 93.5735 48.7926 91.8965C49.2186 91.1325 49.3256 90.1725 50.1906 89.2305C52.1036 95.7885 53.3356 102.022 50.6586 108.396ZM51.4876 77.4715C52.5536 77.3945 53.2816 76.1205 54.7156 76.7195C53.8206 78.2065 52.5886 77.5125 51.4876 77.4715ZM61.2716 97.7855C59.0036 98.9055 57.4096 97.3055 56.2376 95.8545C54.7506 94.0175 54.4846 91.5175 53.7206 89.2965C53.5666 88.8575 57.5756 85.9905 58.5466 86.0025C58.7366 86.1625 59.1686 86.4165 59.4296 86.7845C60.7326 88.6505 62.2546 90.3565 63.0956 92.5425C63.9896 94.8705 63.5216 96.6835 61.2776 97.7915L61.2716 97.7855ZM69.6576 84.7695C66.4656 85.6765 63.6106 84.4735 60.3296 83.0995C62.0886 81.7725 62.6216 80.0245 62.9356 78.4315C63.2796 76.6955 64.2566 76.8195 65.1686 77.2645C67.2116 78.2595 69.4036 79.0825 70.8666 81.0195C72.1746 82.7615 71.7666 84.1715 69.6576 84.7645V84.7695ZM76.2736 68.9585C72.9986 72.1155 68.7166 72.6605 64.5646 73.4965C63.5396 73.7035 63.4806 73.0345 64.0786 72.2585C66.7376 68.7865 70.4276 66.5655 74.1116 64.4565C74.5496 64.2015 77.5766 63.6855 77.8016 66.4935C77.4696 67.2585 77.0726 68.1945 76.2796 68.9585H76.2736ZM97.6366 64.7105C96.3576 65.7115 94.8406 66.2865 93.2896 66.7195C90.2986 67.5485 87.2956 68.3125 84.2926 69.1065C84.2686 69.0115 84.2456 68.9105 84.2216 68.8165C83.9256 68.8165 83.6296 68.8105 83.3396 68.8165C81.8826 68.8695 81.3256 67.6605 80.9046 66.7075C80.4486 65.6705 81.8586 65.7235 82.3676 65.2735C85.5306 62.4955 89.4516 61.3105 93.4846 60.5755C95.1316 60.2735 96.6656 61.2395 97.9916 62.0865C99.2766 62.9035 98.5726 63.9825 97.6366 64.7105ZM100.006 53.1525C101.084 53.1345 101.812 51.8555 103.263 52.4595C102.339 53.8695 101.155 53.4015 100.006 53.1525Z" fill="#E84D00"/>
</svg>
