<svg width="145" height="145" viewBox="0 0 145 145" fill="none" xmlns="http://www.w3.org/2000/svg">
<rect width="145" height="145" fill="#FFCFCB"/>
<path d="M95.7059 42.8127C96.8287 41.392 98.4652 40.1636 100.206 39.0241C101.404 38.2397 101.694 36.856 101.01 35.7905C100.348 34.7619 98.9864 34.8211 97.9302 35.4871C96.0036 36.708 93.8534 37.6552 92.3727 39.4681C91.4735 40.5706 90.2828 40.9258 89.0859 40.5114C84.1388 38.7799 79.1553 38.9205 74.0901 39.8381C70.3851 40.5114 67.3206 43.3751 68.7122 45.595C70.9503 49.1543 68.7197 52.0105 68.2877 55.1109C67.8343 58.3224 66.7103 61.482 67.0896 64.7527C68.2802 74.9494 73.4797 80.07 84.0195 75.0531C88.6388 72.8553 92.634 69.7327 96.1292 66.0032C97.7883 64.2347 99.3884 62.4292 102.102 62.3034C104.416 62.1998 105.049 60.9419 105.011 58.6554C104.899 51.5961 100.05 47.5854 95.6984 42.8275L95.7059 42.8127ZM95.3782 59.0846C94.396 64.1755 89.5694 65.6037 86.4372 68.5932C84.8685 70.0953 82.6066 70.9388 80.5607 71.8712C75.9276 73.9875 72.1032 71.7379 71.5381 66.5804C70.9654 61.3266 71.8885 56.1987 73.9482 51.4333C75.1539 48.6363 77.5037 46.52 81.1484 46.6383C81.1195 48.2737 79.9729 48.2959 79.5346 48.3699C77.348 48.7398 75.6148 50.1235 75.562 51.9587C75.5181 53.5571 77.9647 53.9048 79.3186 54.815C80.7328 55.7622 81.2238 55.0666 81.907 54.0824C82.8741 52.6987 83.9153 51.3741 85.5154 49.2431C85.538 51.8402 84.5558 52.8096 83.7972 53.9714C83.06 55.1035 81.5503 56.5613 84.184 57.649C86.0214 58.4038 87.2925 58.9218 87.933 56.3171C88.2382 55.0666 89.0483 53.8234 90.4687 52.9503C91.1683 54.9186 89.7553 56.1618 89.204 57.3678C88.3123 59.3065 89.1224 59.7949 90.5215 60.5201C92.8349 61.7262 93.8761 61.2749 93.8535 58.5222C93.8459 57.1459 93.1916 55.5846 94.4927 54.3487C94.872 53.9936 95.1182 54.1268 95.3417 54.3858C96.6956 55.9545 95.6909 57.4567 95.3706 59.0919L95.3782 59.0846Z" fill="#E84D00"/>
<path d="M106.705 82.5588C106.345 81.6484 105.172 81.0614 104.582 81.6108C101.972 84.0486 99.7443 81.987 97.3737 81.2871C95.3034 80.6777 93.2623 79.9779 91.0267 80.0005C84.388 80.0607 82.7583 81.9193 83.5207 88.6083C83.5801 89.1124 82.6535 89.7444 82.1448 90.2861C81.7257 90.7376 80.9115 90.414 80.9936 90.2034C81.7712 88.2245 80.7096 88.7512 80.014 89.5412C75.3257 94.8534 76.2838 101.956 81.8154 104.673C85.3373 106.396 89.1129 106.2 92.6487 105.44C95.9157 104.74 99.9981 105.523 102.136 101.761C104.245 98.0512 105.291 93.9656 104.521 89.8046C104.163 87.8408 103.654 86.7046 105.882 85.8093C107.273 85.2449 107.168 83.7777 106.69 82.5588H106.705ZM84.6493 101.151C81.0681 99.3077 80.4621 94.575 83.5284 91.9038C84.5748 90.9934 84.9258 92.4832 85.6882 92.2499C84.6114 94.3794 86.7132 95.3575 87.4303 96.7721C88.2306 98.3522 89.5017 99.6839 90.9597 101.655C88.4098 101.761 86.563 102.129 84.6493 101.144V101.151ZM96.3802 90.7903C96.6642 87.3893 98.4732 86.5993 101.883 85.9823C99.6913 87.8935 98.2863 89.1199 96.3802 90.7903Z" fill="#E84D00"/>
<path d="M51.694 67.3248C49.2198 70.2022 49.159 73.6811 48.8962 77.7315C46.1246 73.8174 43.3869 70.3174 39.8166 67.679C37.8157 66.2035 35.3062 65.3903 32.9785 66.9238C30.7572 68.3833 30.0089 70.4409 30.1116 73.408C30.2868 78.3022 32.6021 82.0385 35.4683 85.4139C41.1347 92.0869 47.6305 97.9427 54.5139 103.331C57.5615 105.716 60.012 104.877 61.603 101.376C63.3189 97.5964 63.3626 93.5483 63.5073 89.5941C63.7618 82.3928 63.749 75.1254 60.5526 68.3606C58.5365 64.0903 54.7663 63.7437 51.694 67.3248ZM57.4921 95.7401C58.5401 94.2286 59.6591 94.1985 60.5255 94.3432L57.4921 95.7401ZM54.2046 76.3158C55.6157 75.3448 56.4117 74.6821 57.6543 74.8843C56.8492 75.7904 55.9175 76.1944 54.2046 76.3158Z" fill="#E84D00"/>
</svg>
