<svg width="145" height="145" viewBox="0 0 145 145" fill="none" xmlns="http://www.w3.org/2000/svg">
<rect width="145" height="145" fill="#FFCFCB"/>
<path d="M96.8124 55.7278C96.0664 54.9928 96.3274 54.2818 96.3744 53.6128C96.5764 50.8048 95.2674 49.1808 92.8094 47.9668C91.1444 47.1438 89.3744 46.5868 87.6864 46.4438C81.8044 45.9348 75.9534 46.0948 71.0494 50.3008C70.5514 49.5898 70.1194 48.8378 69.5624 48.1978C66.6484 44.8328 60.2284 44.0098 55.3904 46.2728C52.7844 47.4928 50.7345 49.5368 51.5345 52.2738C52.4165 55.3128 51.3034 55.9048 48.8694 56.1248C48.3954 56.1658 47.8684 56.1418 47.4654 56.3438C45.8194 57.1668 43.6274 57.3268 43.1064 59.6198C42.5434 62.1138 44.3204 63.3168 45.9374 64.5838C49.0764 67.0428 52.7895 68.6188 55.9405 71.0828C58.0555 72.7358 60.5844 73.9328 63.0774 74.4478C65.6424 74.9748 65.0144 76.0768 64.7004 77.6288C63.2434 84.9458 60.5364 91.8118 57.2494 98.4648C56.6274 99.7258 56.1485 101.006 57.5995 101.729C58.9495 102.404 59.7194 101.166 60.2344 100.088C63.6994 92.8838 66.8855 85.5848 67.9515 77.5578C68.1005 76.4498 68.2064 75.3428 69.8594 75.2058C73.1164 74.9398 76.3855 74.6258 79.5895 74.0208C85.1925 72.9668 90.6715 71.5688 95.5035 68.2038C101.361 64.1158 101.853 60.6858 96.8124 55.7158V55.7278ZM46.5715 60.7988C48.1995 59.2348 50.3085 59.5898 51.9725 58.7248C52.4995 58.4528 53.1744 58.7488 53.4714 59.3408C54.8034 61.9838 56.0945 64.6378 56.8945 67.6768C53.4775 65.3958 50.0535 63.1208 46.5715 60.7988ZM73.4485 64.0508C72.8385 63.7958 72.1684 64.4538 69.4084 67.9728C68.4794 66.9778 69.7814 66.2788 69.7464 65.3898C69.7044 64.4068 69.5335 63.6188 68.4255 63.4408C67.4895 63.2868 66.7374 63.4528 66.4654 64.5778C66.1514 65.8638 65.7195 67.1198 65.2745 68.5888C64.9615 67.4518 64.4935 66.4558 64.4455 65.4368C64.3805 64.0448 63.7354 62.9428 62.5204 62.9428C61.1294 62.9428 60.5724 64.1928 60.8924 66.2368C58.5234 62.1318 56.5034 58.6188 55.5204 54.6318C54.3954 50.0698 55.2125 49.0388 59.8675 48.6068C63.1365 48.3048 66.1395 48.9438 68.7635 51.0648C68.6745 51.2898 67.3594 50.7508 67.6084 51.4088C68.6034 54.0568 67.4364 56.5568 67.3594 59.1158C67.3244 60.1768 67.1464 61.4618 68.6684 61.5928C69.9064 61.6988 70.5574 60.7688 70.8954 59.6728C71.1444 58.8618 71.4285 58.0438 71.5585 57.2088C72.2695 52.7888 75.2074 50.6148 79.2994 50.0458C82.8474 49.5488 86.5074 49.3058 90.0014 50.4848C93.4424 51.6398 93.8875 53.7488 91.3345 56.2958C86.3295 61.2898 80.1825 64.6138 74.2355 68.2158C73.0575 66.8828 75.8115 65.0348 73.4485 64.0508ZM96.7715 62.0068C96.1555 63.3168 95.1784 64.2998 93.9994 65.2358C89.9784 68.4348 85.1275 69.3828 80.3425 70.4198C79.2875 70.6508 78.2275 71.5098 76.9015 70.9348C81.0465 67.8188 85.7024 65.5798 89.6874 62.3208C90.8194 61.3968 91.8435 60.3838 92.9095 59.4068C93.7155 58.6718 94.3724 57.8428 95.5154 58.7608C96.5524 59.5958 97.4405 60.5678 96.7715 62.0008V62.0068Z" fill="#E84D00"/>
</svg>
