<svg width="359" height="254" viewBox="0 0 359 254" fill="none" xmlns="http://www.w3.org/2000/svg">
<path d="M65.1123 221.892C65.392 219.644 64.1643 219.045 62.1051 219.06C59.502 219.076 60.2868 221.106 60.5665 222.04C61.771 226.084 60.7763 230.331 61.9652 234.376C62.2994 235.519 62.2916 236.958 63.6903 236.795C64.9336 236.647 66.2934 235.916 65.936 234.01C65.7495 233.015 65.9049 231.965 65.9049 230.565C66.5421 227.842 64.7393 224.964 65.1201 221.884L65.1123 221.892Z" fill="url(#paint0_linear_675_2699)"/>
<path d="M229.544 192.871C229.008 191.587 228.239 190.887 226.972 191.253C225.651 191.626 225.465 192.84 225.775 195.173C226.537 196.76 227.633 199.389 229.039 201.847C229.684 202.967 230.772 204.398 232.427 203.255C233.833 202.283 233.593 200.929 232.847 199.537C231.673 197.351 230.5 195.15 229.536 192.871H229.544Z" fill="url(#paint1_linear_675_2699)"/>
<path d="M143.431 55.3732C143.431 51.9896 143.377 48.6061 143.455 45.2225C143.493 43.5113 142.755 42.7646 140.743 42.7879C135.327 42.8501 129.911 42.819 124.487 42.8034C122.101 42.8034 120.943 43.7913 120.943 45.8759C120.959 52.4175 120.982 58.959 120.928 65.5006C120.912 67.2352 121.697 67.9275 123.679 67.9041C129.483 67.8497 135.288 67.8263 141.092 67.9197C142.934 67.9508 143.54 67.5074 143.478 65.8584C143.338 62.3659 143.439 58.8657 143.439 55.3732H143.431Z" fill="url(#paint2_linear_675_2699)"/>
<path d="M73.5666 89.629C71.5774 89.6757 70.3651 90.5002 70.4972 92.9192C70.707 96.6528 70.5516 100.402 70.5516 104.151C70.5516 108.157 70.5283 112.155 70.575 116.161C70.5827 116.946 70.0776 118.207 71.5307 118.253C76.6981 118.401 81.8655 118.588 87.0329 118.51C89.6904 118.471 89.9624 116.332 89.9468 114.201C89.9235 111.751 89.8847 109.293 89.9624 106.842C90.0245 104.89 88.0275 103.319 89.1387 101.141C90.3354 98.7841 89.9935 96.1628 89.9235 93.6348C89.8536 91.1613 88.5093 89.6679 85.9683 89.629C81.8422 89.5668 77.7083 89.5434 73.5821 89.6445L73.5666 89.629Z" fill="url(#paint3_linear_675_2699)"/>
<path d="M358.908 250.617C358.558 248.882 357.501 248.291 355.636 249.1C354.642 249.528 353.352 249.295 352.202 249.349C341.525 249.808 330.895 247.972 320.218 248.61C318.835 248.696 317.638 248.268 316.636 247.599C307.646 241.571 298.935 235.177 290.791 228.029C290.278 227.578 288.787 227.064 289.688 226.092C292.749 222.817 291.359 217.481 295.415 214.518C296.72 213.561 297.676 211.088 296.355 208.715C295.042 206.351 293.659 203.823 296.06 201.054C296.635 200.392 296.293 198.774 296.114 197.647C295.625 194.582 292.835 192.451 289.913 192.746C286.619 193.081 285.935 195.243 286.044 198.074C286.075 198.868 286.44 199.848 285.484 200.478C283.246 197.709 283.922 193.641 287.139 192C289.672 190.716 289.082 189.402 287.737 187.83C285.616 185.334 281.14 184.704 278.988 187.286C276.82 189.884 274.862 188.857 273.113 187.737C270.976 186.376 268.739 185.964 266.384 185.8C264.799 185.691 264.271 185.038 263.4 183.646C262.157 181.654 262.149 178.411 258.893 177.501C261.846 177.975 261.24 175.735 261.248 174.032C261.271 167.179 260.385 160.194 261.45 153.512C263.664 139.667 264.441 125.759 265.203 111.813C265.366 108.849 264.302 107.714 261.605 107.566C260.719 118.067 259.694 128.56 259.002 139.068C258.769 142.623 258.567 146.162 257.557 149.553C256.578 152.851 258.645 156.071 257.425 159.346C256.935 160.653 258.357 162.349 257.961 163.243C255.529 168.641 256.912 174.133 256.951 179.616C256.974 182.666 260.315 184.579 259.507 188.126C258.482 185.94 254.845 186.858 255.35 183.91C255.513 182.961 255.925 182.028 255.816 181.04C254.798 171.613 254.076 162.139 252.514 152.797C252.063 150.113 253.33 146.559 250.167 144.49C249.491 144.046 250.4 144.077 250.493 143.852C251.395 141.549 251.659 139.138 252.032 136.711C252.677 132.565 252.133 128.124 254.721 124.39C255.435 123.356 255.179 122.049 254.146 121.8C252.366 121.372 252.623 119.863 252.273 118.868C251.006 115.227 250.043 111.486 248.939 107.791C248.388 105.932 249.305 104.875 250.921 104.416C254.223 103.482 257.565 102.65 261.294 102.393C260.214 105.847 262.856 106.228 265.172 107.014V99.8186C267.115 101.055 268.739 102.627 270.658 103.21C281.164 106.384 291.856 107.893 302.82 105.909C304.265 105.645 306.006 105.878 306.192 103.762C306.356 101.927 305.159 101.079 303.644 100.441C300.372 99.0563 298.694 96.3339 297.684 93.0904C295.71 86.7588 297.256 80.4583 298.088 74.2046C298.717 69.4753 300.489 64.5672 297.948 60.2036C294.863 54.8987 289.299 53.9031 283.572 53.9498C279.617 53.9809 278.988 55.0232 280.845 58.4146C283.231 62.7704 282.702 67.8419 279.198 71.2099C277.053 73.2712 277.263 74.6635 279.765 76.0169C280.34 76.328 280.728 76.8725 280.457 77.8215C279.664 77.8682 278.452 78.3193 277.993 77.9148C274.364 74.7102 270.137 76.9892 266.244 76.4369C266.12 76.4214 265.988 76.4447 265.856 76.4369C262.491 76.0558 261.318 73.8156 263.136 71.0777C265.405 67.663 268.505 65.0961 272.134 63.2993C274.069 62.3426 274.007 60.6936 273.525 59.4413C272.904 57.8156 271.163 58.5546 269.92 58.9201C269.181 59.1379 268.902 60.4836 267.923 60.0558C269.679 54.0276 273.875 52.1297 279.757 53.172C280.387 53.2809 281.055 53.2575 281.692 53.172C285.29 52.6742 285.803 50.9474 284.225 47.696C282.687 44.5225 279.089 43.1768 277.9 39.9099C276.47 35.9974 273.517 32.9794 271.839 29.238C271.039 27.4568 269.764 26.3523 267.962 26.0878C263.68 25.4656 259.569 24.1199 255.249 23.5599C252.568 23.2098 250.812 23.7232 249.001 25.4656C245.691 28.6547 242.42 31.9371 240.229 35.9663C238.535 39.0854 236.934 38.9765 234.191 37.452C229.132 34.6518 224.68 35.5229 221.066 39.8477C220.468 40.5633 220.017 40.6955 219.279 40.7966C215.79 41.2867 212.255 41.5667 208.851 42.4145C205.199 43.3246 200.801 42.5857 198.369 46.6615C197.141 48.7228 195.665 48.4661 193.675 47.3538C182.696 41.2011 171.615 35.2274 160.589 29.1525C156.983 27.169 153.409 25.1311 149.896 22.9998C148.684 22.2687 148.435 16.995 149.275 17.1894C151.023 17.5939 152.422 17.8195 152.686 15.6026C152.966 13.2847 151.039 12.468 149.554 11.2779C145.693 8.18988 141.831 5.09411 138.21 1.74165C136.018 -0.288497 133.951 -0.576295 131.62 1.04938C126.282 4.76742 121.013 8.59435 115.675 12.3124C114.144 13.378 115.24 15.2448 114.191 16.396C114.844 16.7616 115.457 17.2594 116.157 17.4539C116.988 17.6872 118.659 15.3459 118.597 18.2628C118.558 19.9585 118.97 21.4208 116.351 22.3075C106.599 25.6133 96.9325 29.2303 87.4137 33.1817C84.3987 34.434 81.1972 35.2662 78.4698 37.6775C71.3909 43.9391 63.7913 49.6095 56.4171 55.5288C49.3304 61.2225 42.267 66.9474 35.1647 72.6256C33.8127 73.7067 33.9292 75.1535 34.1856 76.4992C34.5042 78.156 35.9729 78.0159 37.2783 78.0082C41.1558 77.9848 45.041 78.1948 48.903 77.9382C51.5916 77.7593 51.9724 78.7938 52.0267 81.1817C52.1045 84.542 51.0554 87.7077 51.0865 91.0758C51.2497 108.647 51.172 126.226 51.1409 143.805C51.1409 144.801 51.5217 145.882 50.799 146.792C50.4726 147.196 41.8396 147.266 41.3734 146.916C36.8432 143.548 32.0643 143.642 28.0314 147.344C26.757 148.519 25.6847 148.799 23.9752 148.192C19.3828 146.566 13.5782 149.087 13.2597 155.714C13.1664 157.557 12.1951 158.055 10.9907 158.623C7.90577 160.077 4.85973 161.493 2.54412 164.192C-2.16481 169.691 -0.0900862 177.151 6.73242 178.722C9.62305 179.391 11.9931 177.509 14.7827 176.746C14.5185 180.589 14.1377 184.665 18.4037 186.423C23.7188 188.624 28.3888 186.827 32.3907 182.673C33.0434 186.36 31.3649 190.786 36.8665 191.93C34.0613 191.058 33.0822 192.847 32.6549 194.846C32.0021 197.888 30.3859 200.252 28.5676 202.703C25.2418 207.183 22.8873 212.153 23.2758 217.987C23.3846 219.652 22.7086 221.378 25.1408 222.436C27.5341 223.471 29.4689 223.066 31.093 221.635C32.787 220.142 34.0302 218.127 35.5377 216.26C35.8874 222.055 38.7392 226.224 43.0285 227.477C47.5587 228.791 50.1074 225.61 52.3764 222.615C53.8917 227.049 53.1768 231.692 54.218 236.142C54.5133 237.402 54.7153 238.467 56.1684 238.483C57.909 238.506 58.1499 237.269 58.1577 235.846C58.2198 229.234 57.2019 222.755 55.8421 216.307C55.6245 215.272 54.2103 214.238 55.3914 213.188C56.2928 212.379 57.0698 214.051 58.1654 213.779C58.5307 213.686 59.0435 214.378 59.4787 214.354C62.4237 214.222 65.8039 215.685 68.1428 213.001C70.031 210.839 68.9121 208.163 68.1195 205.806C67.7853 204.818 66.814 204.048 66.0603 203.084C70.6863 202.716 72.4606 204.629 71.3831 208.824C71.2898 209.19 71.4453 209.625 71.3209 209.975C69.355 215.459 69.5104 221.347 68.0806 226.893C67.3113 229.864 67.7465 232.719 67.4823 235.605C67.3735 236.795 67.9951 237.588 69.1996 237.713C70.4195 237.845 71.1344 237.176 71.3209 235.986C71.6084 234.127 72.0125 232.26 72.0902 230.386C72.4243 222.296 74.6001 214.588 76.7836 206.872C77.0789 205.837 77.4985 204.95 78.8816 205.409C75.991 209.835 75.9055 213.149 79.1614 214.347C82.2929 215.498 81.5469 216.781 80.5212 218.866C77.8404 224.295 76.0143 229.981 75.9755 236.126C75.9677 237.277 76.3018 238.327 77.4674 238.397C78.1978 238.444 79.5888 237.752 79.6354 237.285C80.1094 232.385 82.425 227.904 82.8679 223.058C83.0855 220.663 84.2744 220.134 85.9528 220.733C89.2009 221.899 92.0837 222.008 94.7024 219.434C95.1531 218.99 95.5572 218.003 96.443 219.029C97.1579 219.862 96.2332 220.079 95.9535 220.507C93.6301 224.085 92.2547 228.005 91.1435 232.12C90.5374 234.368 90.8793 235.185 93.1405 235.434C99.6678 236.157 106.226 236.709 112.691 237.798C125.551 239.969 138.567 240.63 151.474 242.341C161.257 243.64 171.172 244.029 180.908 245.608C193.271 247.615 205.712 249.061 218.153 249.956C230.259 250.827 242.451 250.897 254.588 251.675C261.877 252.142 269.181 251.776 276.509 252.251C285.064 252.811 293.651 253.682 302.276 253.293C308.158 253.028 314.033 253.137 319.923 252.593C324.072 252.212 328.268 253.542 332.519 253.293C335.736 253.098 339.077 252.764 342.185 253.378C347.042 254.335 351.743 254.086 356.545 253.316C358.325 253.028 359.273 252.359 358.931 250.648L358.908 250.617ZM294.762 82.8852C293.053 82.2551 292.019 81.8818 290.714 81.3995C292.361 80.9017 293.62 80.7228 294.762 82.8852ZM283.184 208.599C285.111 207.502 286.937 206.623 287.504 203.48C289.253 207.121 287.613 208.35 285.414 209.322C282.741 210.496 281.148 212.029 283.541 214.992C279.749 213.087 279.563 210.668 283.184 208.599ZM280.643 217.738C282.321 220.562 279.998 222.063 279.959 223.875C279.905 226.52 278.561 226.154 276.354 225.882C278.708 223.572 279.213 220.756 280.643 217.738ZM274.248 200.517C274.699 200.54 276.027 199.863 275.468 201.365C275.289 201.839 276.501 203.107 274.947 202.765C270.3 201.73 269.554 205.277 268.233 208.217C268.101 208.521 267.861 208.77 267.247 209.649C266.718 204.647 270.316 200.315 274.248 200.517ZM269.422 190.646C270.052 190.973 271.614 190.934 271.202 192.038C270.891 192.879 269.725 193.781 268.544 193.291C266.928 192.622 265.514 191.587 264.745 189.643C266.174 190.996 268.024 189.923 269.422 190.646ZM259.973 198.821C258.349 197.063 256.725 195.305 255.07 193.524C258.474 193.166 258.676 196.721 259.973 198.821ZM254.938 187.519C254.021 189.122 253.299 190.685 253.47 193.073C249.584 189.114 246.756 185.1 243.85 180.527C248.838 181.507 249.864 187.636 254.938 187.519ZM249.056 123.667C249.343 127.299 248.792 131.103 247.984 134.689C246.429 141.58 247.587 148.355 248.302 155.161C248.885 160.668 249.965 166.137 250.299 171.651C250.455 174.179 251.208 176.614 251.224 179.453C248.527 178.092 247.308 174.537 243.966 175.004C242.731 175.175 242.482 176.606 242.707 178.792C236.545 169.722 232.155 160.871 228.713 151.529C228.122 149.927 228.441 147.694 225.9 147.422C228.985 145.088 225.62 143.051 225.503 140.865C225.34 137.894 224.812 134.86 223.879 132.044C222.947 129.228 224.493 128.746 226.459 128.404C227.454 128.225 228.511 128.513 229.202 127.439C231.958 123.177 235.714 119.863 240.469 117.499C242.373 116.55 244.261 115.57 246.165 114.605C247.191 117.654 248.815 120.61 249.056 123.667ZM218.557 126.436C217.383 126.07 216.373 125.682 215.479 124.935C214.034 123.721 211.447 123.161 212.029 120.773C212.651 118.238 217.904 115.259 219.94 116.052C221.377 116.604 222.566 117.825 224.757 119.389C220.942 118.059 219.745 121.085 217.391 121.831C215.922 122.298 217.888 124.787 218.549 126.444L218.557 126.436ZM214.322 113.998C216.42 113.547 218.518 113.47 221.758 114.076C218.502 114.496 216.412 114.574 214.322 113.998ZM250.183 83.2585C252.032 82.9241 252.685 83.6863 253.555 84.6353C254.309 85.4598 254.759 86.5954 255.583 87.3188C256.982 88.5322 258.567 89.5279 260.393 90.8346C256.314 91.7447 252.436 92.5614 248.59 93.487C247.331 93.7904 246.414 93.7048 245.917 92.3747C245.87 92.2581 245.823 92.1414 245.769 92.0325C241.899 84.5731 241.93 84.7364 250.175 83.2508L250.183 83.2585ZM242.459 81.2517C243.477 72.3222 243.018 64.4039 244.479 55.9644C246.266 64.2094 248.66 71.4744 248.31 79.4316C246.942 79.9061 244.852 78.8716 242.459 81.2595V81.2517ZM258.481 98.224C255.7 98.4496 252.941 99.3908 250.245 100.239C248.776 100.698 248.007 100.301 247.836 98.9474C247.642 97.4384 248.939 98.294 249.538 98.1229C253.089 97.1195 256.655 96.1783 260.261 95.2061C260.626 96.8084 261.069 98.014 258.489 98.2163L258.481 98.224ZM265.661 93.1681C263.594 90.648 263.773 89.6757 266.78 88.4C266.384 90.0879 266.027 91.628 265.661 93.1681ZM258.536 76.2814C260.106 81.0106 264.861 80.4583 268.894 81.314C267.037 83.5308 264.131 83.8808 261.97 85.4209C261.427 85.8098 261.046 85.6543 260.58 85.4365C255.863 83.1963 250.967 73.4034 251.946 68.2853C252.172 67.0952 252.708 66.2629 253.897 66.3718C256.345 66.6051 257.86 65.4462 259.095 63.5094C260.447 61.3859 262.196 61.1836 264.372 62.9727C260.036 66.6207 256.648 70.5954 258.544 76.2892L258.536 76.2814ZM267.946 51.3363C266.897 52.7519 265.646 53.9654 265.079 55.7233C264.861 56.4 264.076 57.3645 263.377 56.9289C259.624 54.5798 258.629 58.4923 256.111 59.9702C255.187 55.4121 253.835 51.0796 254.301 46.5059C254.418 45.3703 254.114 44.2424 253.081 43.9546C251.76 43.5891 251.807 42.8268 252.11 41.9634C252.374 41.2322 252.996 40.7655 253.889 40.7266C255.039 40.68 254.938 41.4345 255.109 42.2123C255.529 44.118 257.036 43.9624 258.466 43.7291C258.808 43.6746 259.08 43.2157 259.43 43.1146C261.186 42.5934 263.773 41.1622 264.566 41.8312C266.47 43.4335 267.627 45.977 268.91 48.2483C269.562 49.4072 268.529 50.5429 267.938 51.3363H267.946ZM269.896 51.204C272.748 50.6985 274.598 50.6985 277.442 51.2118C274.59 51.7096 272.74 51.7174 269.896 51.204ZM242.909 39.8944C244.751 37.0241 247.183 34.6362 248.947 31.7427C252.832 25.3489 258.38 28.9191 263.385 29.3703C266.081 29.6114 268.148 32.0305 271.326 31.3537C270.417 32.6916 269.337 31.8749 268.599 32.3649C271.373 38.0509 275.18 43.0835 278.98 48.1938C275.553 49.2672 273.486 47.9683 272.142 45.0592C271.777 44.2736 271.194 43.5891 270.774 42.8268C268.557 38.8183 265.234 37.3171 260.805 38.3231C259.849 38.5331 258.761 38.7354 257.93 37.802C255.358 34.8851 252.358 35.6707 249.693 37.3197C247.447 38.7043 247.719 43.4802 248.652 46.537C250.221 51.663 251.022 57.0222 252.149 62.2804C249.071 60.5303 248.862 57.5901 249.071 55.5444C249.646 49.9984 245.676 47.0893 243.181 43.3324C242.319 42.0334 241.837 41.5745 242.909 39.9099V39.8944ZM239.902 46.2337C240.524 48.2638 243.01 49.0728 243.111 51.4063C239.35 50.854 238.247 49.1117 239.902 46.2337ZM240.027 57.0456C240.174 65.5006 236.973 72.2755 232.038 78.436C230.609 69.802 234.432 63.2371 240.027 57.0456ZM234.587 83.0096C235.986 80.9795 237.221 79.1905 238.535 77.2848C239.514 80.7539 238.387 82.6129 234.587 83.0096ZM227.205 40.3533C230.655 38.9221 232.862 42.329 235.784 43.099C236.04 43.169 236.258 43.2779 236.095 43.8457C235.053 47.3927 233.74 50.7296 230.974 53.4753C228.596 50.2862 236.491 48.6605 231.425 45.3236C227.601 42.8034 224.711 42.0489 222.776 47.4471C223.102 44.328 224.245 41.5822 227.213 40.3455L227.205 40.3533ZM211.128 54.8132C211.136 54.9454 211.144 55.0699 211.151 55.2021H207.352C207.406 55.0699 207.453 54.9454 207.507 54.8132H211.128ZM201.438 75.6047C205.72 73.0534 209.714 70.0043 214.034 67.5308C216.218 66.2784 217.142 64.7383 217.057 62.3971C216.995 60.6469 217.609 59.2391 218.906 57.9479C219.901 62.8482 218.409 66.9007 214.314 69.4287C209.007 72.7033 203.839 76.2114 198.703 79.7427C194.445 82.6674 194.709 83.4997 198.68 87.2333C202.961 91.2624 206.924 95.6572 210.794 100.091C212.954 102.572 214.617 102.004 216.87 100.316C223.864 95.0972 231.036 90.1424 239.226 86.2999C238.783 88.0267 239.273 89.2245 239.995 90.4691C243.08 95.8283 244.293 101.654 244.238 107.815C244.223 109.627 243.935 110.84 242 111.657C238.449 113.151 234.968 114.877 231.627 116.806C229.878 117.818 228.899 117.444 227.695 116.138C225.356 113.594 222.652 111.541 219.046 111.331C216.964 111.206 217.08 109.223 216.031 108.227C210.079 102.603 204.857 96.3106 199.402 90.2201C196.543 87.0233 193.388 84.0208 190.342 83.7486C189.977 83.7952 189.611 83.8108 189.231 83.7719C189.596 83.7175 189.969 83.7175 190.342 83.7486C194.258 83.2819 197.133 78.1715 201.446 75.6047H201.438ZM164.676 81.2362C167.263 80.7928 170.185 80.0616 172.151 83.7486C178.375 95.4005 186.278 105.932 194.911 115.928C196.007 117.195 196.869 118.681 197.833 120.066C188.112 111.618 181.048 101.203 174.226 90.6013C173.822 89.9712 173.511 89.279 173.091 88.6567C170.921 85.3846 168.393 85.1772 165.507 88.0344C165.057 88.4778 164.699 89.0067 164.14 89.699C163.176 88.26 163.471 86.9299 163.627 85.7943C163.844 84.2153 162.43 81.6173 164.668 81.2362H164.676ZM149.904 109.534C153.346 113.345 154.932 116.939 151.178 121.341C150.945 121.621 150.743 121.979 150.658 122.329C148.878 130.03 143.734 131.834 136.57 130.792C134.565 130.496 134.037 130.076 134.06 128.124C134.161 120.641 134.099 113.158 134.099 105.668C134.099 98.1774 134.169 90.9513 134.052 83.6008C134.021 81.6173 134.526 81.0184 136.593 80.995C143.525 80.9173 150.464 81.5162 157.387 80.6839C158.763 80.5206 158.902 81.5551 158.902 82.6052C158.902 85.7009 159.143 88.82 158.84 91.8925C158.483 95.5483 154.528 96.2095 152.562 98.5818C152.196 99.0252 151.435 99.1263 150.961 99.4997C145.716 103.669 145.452 104.626 149.889 109.534H149.904ZM121.153 170.703C120.399 164.534 119.249 163.585 111.013 163.095C112.365 160.342 113.903 157.65 112.971 154.329C111.883 154.492 110.717 155.084 109.598 154.539C109.179 152.626 112.505 154.01 111.766 152.221C110.873 150.051 108.705 148.737 106.545 148.628C102.916 148.433 99.2015 147.951 95.1919 149.343C97.0491 144.318 100.017 140.367 102.302 136.058C102.706 135.288 103.242 135.342 103.848 135.342C117.229 135.334 130.61 135.342 144.418 135.342C137.976 148.581 132.902 162.107 121.145 170.703H121.153ZM133.516 188.95C131.853 190.086 130.012 189.402 127.696 189.674C129.981 187.535 131.791 189.689 133.516 188.95ZM101.665 205.316C100.204 206.234 99.1316 205.736 97.0025 206.016C99.1161 204.81 100.181 205.215 101.665 205.316ZM84.593 173.277C83.2953 172.818 81.4071 172.632 81.4071 170.563C81.4071 168.672 83.2098 168.361 84.3443 168.042C89.5739 166.572 94.4227 167.226 98.4245 171.333C93.972 174.032 89.4107 174.981 84.6007 173.277H84.593ZM90.5607 77.1759C89.7837 77.1759 89.0066 77.1914 88.2373 77.1759C86.7299 77.137 85.2224 77.2303 85.3078 79.2449C85.3778 80.9717 86.7299 81.0884 88.113 81.065C90.5685 81.0262 93.0395 81.244 95.4717 81.0028C98.6032 80.6917 99.4657 81.3528 99.3647 84.9309C98.9917 98.3641 98.9684 111.813 99.3336 125.246C99.4813 130.885 97.0957 135.311 94.9666 140.134C92.8686 144.894 89.5894 145.462 84.9426 145.61C79.8452 145.773 74.569 145.384 69.6658 146.426C65.5241 147.305 61.5767 146.372 57.5904 146.963C55.6478 147.251 54.8397 146.613 54.9718 144.482C55.166 141.394 55.1738 138.267 54.9718 135.179C54.8164 132.838 55.4302 132.106 57.9013 132.161C66.2934 132.34 74.7011 132.231 83.0933 132.223C84.8882 132.223 86.9397 132.581 86.8076 129.719C86.6832 127.105 84.7251 127.587 83.1243 127.579C74.7244 127.556 66.3245 127.471 57.9323 127.634C55.5235 127.681 54.7309 127.051 55.0028 124.655C56.7124 109.884 55.4147 95.0583 55.7721 80.2561C55.8032 78.8016 55.9198 77.8526 57.6837 77.7515C58.3442 77.7126 59.4476 77.137 59.5253 76.6625C60.8385 69.0709 68.4769 67.7874 72.8828 63.3071C76.5583 59.5735 81.2361 56.8433 85.2535 53.4131C87.1184 51.8185 89.2242 50.8385 91.3222 49.7339C97.5853 46.4593 104.501 44.9269 111.005 42.2667C118.014 39.3965 125.07 36.6275 132.149 33.9439C133.392 33.4695 134.682 33.6639 136.104 34.4806C146.275 40.291 156.563 45.8914 166.797 51.593C172.345 54.681 177.87 57.8234 183.683 61.0981C179.191 66.4651 173.519 70.4632 169.649 76.1491C168.577 77.7281 166.859 77.1525 165.383 77.1525C140.447 77.1759 115.504 77.1681 90.5685 77.1681L90.5607 77.1759ZM187.086 76.5147C187.086 76.647 187.102 76.7714 187.109 76.9036H183.31C183.364 76.7714 183.418 76.647 183.465 76.5147H187.086ZM124.067 12.2268C127.424 9.72999 130.416 5.40524 134.472 5.44413C137.627 5.47525 140.276 9.42664 142.942 11.9235C145.374 14.2025 143.695 16.9872 143.929 20.0207C137.036 13.1836 130.198 16.6216 123.189 19.7874C123.717 16.9872 121.961 13.7981 124.075 12.2268H124.067ZM47.3877 71.9877C46.1678 72.96 44.6836 73.8934 42.6011 72.9289C47.6209 68.7053 52.4697 64.4894 57.4661 60.4525C65.8816 53.6542 74.3437 46.9104 82.8912 40.2755C86.8231 37.2264 91.8195 36.4019 96.3342 34.6129C108.332 29.8681 120.501 25.5511 132.545 20.9152C134.029 20.3474 135.078 20.1685 136.5 20.9541C151.52 29.308 166.564 37.6231 181.631 45.8992C185.338 47.9371 189.13 49.8195 192.883 51.7719C191.811 54.222 190.381 53.8876 188.415 52.7986C171.731 43.5735 154.994 34.4573 138.295 25.2555C135.754 23.8554 133.361 23.451 130.524 24.5788C115.535 30.537 100.421 36.1841 85.5332 42.3679C81.8189 43.908 78.6563 46.9026 75.4238 49.4617C66.037 56.9133 56.7668 64.505 47.38 71.9644L47.3877 71.9877ZM44.9711 152.081C48.0482 151.124 51.1176 150.113 54.4822 151.544C56.2228 152.283 57.4195 153.015 57.3651 154.983C57.2951 157.207 55.3448 157.433 53.8606 157.759C52.3842 158.086 50.7757 157.829 49.2294 157.837C48.1959 157.837 47.1546 157.752 46.1367 157.86C44.1164 158.071 42.3913 157.456 41.9717 155.449C41.5365 153.38 43.4869 152.556 44.9789 152.089L44.9711 152.081ZM18.1007 154.212C18.8622 152.991 19.9345 152.369 21.5508 152.338C23.7965 152.291 25.7935 153.31 27.9692 153.442C28.0159 153.419 28.0625 153.396 28.1091 153.372C28.1713 153.372 28.2334 153.372 28.2956 153.372C30.4636 150.938 32.2819 147.772 36.3614 148.9C37.154 149.118 38.9179 149.717 38.4439 150.494C37.8611 151.459 37.6513 153.232 35.7708 153.201C33.2843 153.17 30.7899 153.302 28.3034 153.372C28.2723 153.404 28.249 153.442 28.2179 153.474H28.2101C28.1324 153.466 28.0547 153.45 27.977 153.45C26.0344 154.352 24.1306 155.379 22.118 156.087C20.8359 156.538 19.3362 156.6 18.0541 155.931C17.8209 155.807 17.8365 154.656 18.1085 154.22L18.1007 154.212ZM34.8539 173.254C34.3566 172.048 33.9214 170.601 31.9944 171.014C30.0284 171.434 30.2693 172.896 30.2305 174.312C30.0828 179.819 27.4408 182.728 22.6931 182.658C19.4139 182.611 17.922 180.581 18.9244 177.369C19.4761 175.595 20.4085 173.931 20.8359 172.134C21.139 170.85 22.1258 169.139 20.5484 168.159C19.2196 167.334 18.0541 168.268 16.8263 169.201C14.7594 170.788 12.8478 172.608 10.3146 173.596C8.46525 174.312 6.85675 174.646 5.49691 172.982C4.07491 171.247 4.37019 169.621 5.78442 167.871C8.90817 164.005 13.1509 162.193 17.7355 160.987C18.8389 160.7 20.3697 160.723 20.7504 162.053C22.2812 167.443 27.0601 167.101 31.0308 167.856C34.613 168.54 38.1641 167.545 41.5909 166.347C41.6143 166.292 41.6298 166.23 41.6531 166.176L41.7619 166.284C41.7619 166.284 41.6531 166.176 41.6609 166.183C41.723 166.183 41.793 166.183 41.8551 166.191C43.8055 164.223 44.4583 160.91 48.7087 161.586C53.2234 162.31 56.8134 163.951 59.6496 167.459C60.9551 169.069 60.9551 170.99 60.077 172.429C59.0901 174.047 57.2874 173.487 55.6245 172.842C52.3686 171.574 49.3148 169.932 46.5097 167.895C45.0644 166.844 43.588 166.253 41.8551 166.191C41.8241 166.222 41.793 166.253 41.7619 166.284C41.7075 166.308 41.6453 166.323 41.5832 166.347C40.9382 168.035 40.8994 169.497 42.6866 170.757C43.9376 171.636 44.9323 172.88 45.9891 174.016C47.7296 175.875 48.7398 178.193 46.8594 180.208C44.8701 182.339 42.2048 182.082 39.8892 180.278C37.5425 178.442 35.9884 176.023 34.8461 173.277L34.8539 173.254ZM55.166 186.648C55.3603 185.365 56.7124 183.552 57.9013 184.602C60.4966 186.889 63.4883 186.415 67.3502 186.594C63.4028 189.176 59.7429 189.223 56.2617 189.542C54.0704 189.736 55.0262 187.566 55.166 186.648ZM52.1122 182.144V175.572C53.2156 177.687 55.8887 176.108 55.8188 178.808C55.7566 181.367 53.2234 180.457 52.1122 182.144ZM37.356 187.2C37.3172 186.08 36.6489 185.069 37.8222 184.563C38.1175 184.439 38.9878 184.828 39.0578 185.108C39.3297 186.228 38.3506 186.586 37.3638 187.2H37.356ZM64.1565 210.131C63.496 211.212 62.3926 209.999 61.4835 209.898C56.7124 209.353 53.7129 206.304 50.8612 202.928C49.7966 201.676 48.2891 200.066 46.8438 200.797C45.0022 201.73 45.7015 203.698 46.362 205.526C47.8074 209.524 49.3537 213.553 48.8719 217.979C48.6233 220.266 47.8695 222.335 45.484 222.903C43.1839 223.455 42.1271 221.464 41.1169 219.854C40.0368 218.135 39.3686 216.307 39.5084 214.152C39.6872 211.321 39.6405 208.466 39.5084 205.627C39.4618 204.678 40.3554 203.177 38.5294 202.835C36.8665 202.524 36.0894 203.434 35.4056 204.896C33.5562 208.832 32.2352 213.024 29.5933 216.61C28.9561 217.474 28.1713 217.458 26.8891 218.695C28.0081 212.184 30.1217 207.121 34.2711 202.975C35.087 202.158 35.9884 201.808 37.0297 202.049C39.7338 202.679 42.6167 201.707 44.1552 200.299C47.9705 196.807 51.0399 199.023 54.3424 200.509C57.6914 202.018 60.753 203.978 63.3018 206.701C64.3119 207.774 64.8326 209.034 64.1565 210.123V210.131ZM52.0889 194.948C51.6693 193.135 53.8839 193.003 53.6741 192.14C59.2455 195.399 66.5887 192.84 72.1757 197.304C64.6927 201.738 58.6472 195.718 52.0889 194.94V194.948ZM66.6664 163.865C66.6353 164.892 67.2181 166.176 65.3843 166.541C63.7835 166.86 63.7447 165.367 63.294 164.775C60.4189 160.987 60.4966 160.925 61.8254 156.017C61.8875 155.776 62.0662 155.496 62.0041 155.294C60.3257 149.841 64.3119 150.798 67.1637 150.899C74.3592 151.148 81.4692 149.234 88.8667 150.331C87.0484 154.905 83.6216 156.523 79.0137 155.099C71.0412 152.633 66.9461 155.55 66.6664 163.873V163.865ZM74.196 192.575C75.9366 193.462 77.0167 191.082 78.1978 192.614C78.563 193.089 78.8039 194.559 77.7938 194.955C76.3251 195.531 75.5248 194.31 74.1882 192.575H74.196ZM77.2887 200.027C80.2726 198.494 83.4973 198.697 86.8231 200.027H77.2887ZM81.4459 210.263C82.2618 206.358 87.6545 206.389 87.8721 201.73C88.9678 202.874 89.8381 203.776 91.2212 205.215C86.1082 204.157 86.6366 212.005 81.4459 210.263ZM103.11 213.507C102.675 214.961 101.525 216.315 100.344 216.408C98.813 216.532 99.4968 214.378 98.7198 213.39C98.2613 212.807 98.4866 211.655 98.4711 210.761C98.4556 209.82 98.5177 208.809 97.1346 209.042C96.1943 209.205 94.9899 208.326 94.4771 210.263C93.9176 212.379 92.6743 214.339 91.5087 216.237C91.159 216.805 89.9702 217.334 89.3485 217.162C87.9265 216.781 89.2086 215.755 89.1465 215.016C88.8823 211.858 91.9128 210.061 92.3946 207.16C92.5111 206.436 93.7233 206.491 94.3683 206.942C95.8058 207.945 97.391 207.486 98.8674 207.408C101.206 207.292 103.856 209.252 103.848 211.072C103.53 212.099 103.312 212.799 103.102 213.507H103.11ZM107.431 203.566C107.065 204.18 106.972 204.951 106.739 205.705C105.348 205.269 105.597 203.908 104.773 203.286C103.545 202.36 103.452 200.914 104.268 199.972C104.991 199.132 105.954 200.12 106.84 200.626C108.355 201.489 108.161 202.353 107.438 203.574L107.431 203.566ZM106.708 195.873C106.506 195.78 105.55 195.523 105.861 196.457C105.946 196.713 106.436 196.83 106.747 197.017C106.304 197.133 105.814 197.429 105.418 197.336C104.719 197.164 103.996 196.869 104.291 195.819C104.493 195.103 104.726 194.333 104.633 193.625C104.206 190.335 106.211 190.327 108.114 191.377C109.513 192.147 110.888 191.595 112.171 192.147C111.254 194.699 110.57 197.584 106.708 195.881V195.873ZM276.874 244.418C270.347 241.361 263.478 239.035 257.386 235.053C256.236 234.306 254.394 233.901 253.679 235.27C253.089 236.39 253.229 237.884 255.047 238.988C260.385 242.24 266.135 244.589 272.282 247.459C256.088 247.047 240.337 247.132 224.656 246.075C213.475 245.32 202.2 244.674 191.173 242.31C189.806 242.014 189.106 243.407 187.591 242.862C183.201 241.275 178.523 241.026 173.899 240.536C168.382 239.953 162.881 239.191 157.372 238.491C151.241 237.713 145.086 236.943 138.955 236.375C133.174 235.838 127.408 235.099 121.627 234.687C117.587 234.399 113.631 233.761 109.622 232.937C117.843 218.119 127.541 204.344 138.303 191.307C141.271 187.706 143.602 183.622 146.897 180.262C147.363 179.788 148.42 178.862 147.526 177.719C147.363 177.509 147.456 176.762 147.557 176.731C153.183 175.261 155.359 169.94 158.514 166.113C165.663 157.44 173.604 149.608 181.623 141.822C187.692 135.926 194.064 130.341 200.304 124.631C200.669 124.297 201.252 123.706 201.5 123.807C205.766 125.542 210.817 125.51 214.073 129.563C214.951 130.652 214.741 131.718 214.749 132.814C214.788 138.5 214.695 144.186 214.78 149.864C214.928 158.973 216.505 167.832 219.334 176.505C219.87 178.154 220.624 179.756 222.139 179.274C223.887 178.714 224.664 177.104 223.39 174.942C222.473 173.386 221.805 171.387 221.875 169.621C221.999 166.681 220.367 166.168 217.787 165.958C221.253 166.043 220.771 164.744 220.344 162.201C218.712 152.486 218.168 142.654 218.844 131.624C220.243 136.952 221.509 141.192 222.473 145.501C224.695 155.457 228.922 164.62 234.035 173.308C235.092 175.105 235.815 177.065 236.934 178.745C243.127 188.025 249.608 197.102 258.761 203.83C259.795 204.593 259.997 205.479 259.297 206.802C258.023 209.221 258.225 211.943 258.14 214.611C258.031 218.174 260.556 219.34 263.105 220.414C264.612 221.052 264.853 219.55 265.366 218.578C266.788 215.871 268.614 213.608 272.119 213.188C271.956 215.506 269.632 215.56 268.505 216.742C266.361 218.99 265.77 221.293 266.827 224.116C267.868 226.901 270.013 227.935 272.818 227.609C276.556 227.165 280.153 228.496 283.852 228.379C284.925 228.348 285.476 228.954 286.113 229.577C293.138 236.492 301.017 242.349 309.751 248.346C298.088 248.882 287.225 249.256 276.882 244.41L276.874 244.418Z" fill="url(#paint4_linear_675_2699)"/>
<defs>
<linearGradient id="paint0_linear_675_2699" x1="179.5" y1="0" x2="179.5" y2="254" gradientUnits="userSpaceOnUse">
<stop stop-color="#E23B3D"/>
<stop offset="0.645" stop-color="#E84D00"/>
<stop offset="1" stop-color="#FFA171"/>
</linearGradient>
<linearGradient id="paint1_linear_675_2699" x1="179.5" y1="0" x2="179.5" y2="254" gradientUnits="userSpaceOnUse">
<stop stop-color="#E23B3D"/>
<stop offset="0.645" stop-color="#E84D00"/>
<stop offset="1" stop-color="#FFA171"/>
</linearGradient>
<linearGradient id="paint2_linear_675_2699" x1="179.5" y1="0" x2="179.5" y2="254" gradientUnits="userSpaceOnUse">
<stop stop-color="#E23B3D"/>
<stop offset="0.645" stop-color="#E84D00"/>
<stop offset="1" stop-color="#FFA171"/>
</linearGradient>
<linearGradient id="paint3_linear_675_2699" x1="179.5" y1="0" x2="179.5" y2="254" gradientUnits="userSpaceOnUse">
<stop stop-color="#E23B3D"/>
<stop offset="0.645" stop-color="#E84D00"/>
<stop offset="1" stop-color="#FFA171"/>
</linearGradient>
<linearGradient id="paint4_linear_675_2699" x1="179.5" y1="0" x2="179.5" y2="254" gradientUnits="userSpaceOnUse">
<stop stop-color="#E23B3D"/>
<stop offset="0.645" stop-color="#E84D00"/>
<stop offset="1" stop-color="#FFA171"/>
</linearGradient>
</defs>
</svg>
