<?xml version="1.0" encoding="UTF-8"?><svg id="a" xmlns="http://www.w3.org/2000/svg" viewBox="0 0 484.78 166.41"><defs><style>.b{opacity:.7;}.c{fill:#d9d9d9;}.c,.d{stroke-width:0px;}.d{fill:#fff;}</style></defs><g class="b"><path class="d" d="m14.55,2c147.83,0,295.66,0,443.49.07,2.18,0,4.35.99,7.81,1.82-1.29,3.3-1.86,6.19-3.4,8.43-8.66,12.59-6.87,21.71,6.22,30.45,4.11,2.74,8.7,5.14,8.99,11.73-1.8,1.06-3.81,2.03-5.59,3.32-4.27,3.1-8.91,5.9-12.53,9.66-5.47,5.7-5.25,9.96.66,15.37,6.82,6.24,9.05,12.88,4.06,21.21-.84,1.4-1.22,3.1-1.65,4.7-2.52,9.47-.4,14.44,8.37,18.72,4.78,2.33,9.91,4.03,11.48,10.34-5.81,2.98-12.33,4.97-16.97,9.08-4.52,4.01-7.56,10.05-4.43,17.52H12.8c1.49-3.37,2.23-5.67,3.44-7.69,5.17-8.69,4.98-11.21-1.8-18.38-1.79-1.89-3.59-3.76-6.31-6.62,3.62-3.82,6.9-7.4,10.3-10.86,4.84-4.93,4.69-7.96-1.17-11.74-2.77-1.79-6.07-2.76-8.89-4.49-7.45-4.57-7.9-9.05-1.71-14.99,4.36-4.18,8.87-8.05,15.25-8.8,3.06-.36,6.71-1.26,6.32-4.94-.31-2.91-2.19-6.07-4.29-8.24-1.7-1.75-4.73-2.25-7.21-3.19-2.17-.81-4.53-1.21-6.59-2.22C.77,57.66-.15,53.82,5.53,45.01c2.69-4.17,4.82-8.72,7.73-12.71,1.41-1.93,3.89-3.25,6.14-4.33,1.74-.84,3.86-.96,5.83-1.27,3.58-.56,8.02-.34,8.38-5.23.32-4.38-3.58-5.99-6.92-7.56-3.01-1.42-6.28-2.41-9.04-4.2-1.89-1.23-3.09-3.52-4.61-5.34.5-.79,1-1.57,1.5-2.36Z"/><path class="c" d="m464.07,166.41H9.73l1.24-2.81c.5-1.14.92-2.16,1.3-3.08.74-1.81,1.38-3.37,2.25-4.83,4.75-7.99,4.61-9.48-1.54-15.98-1.19-1.26-2.39-2.51-3.86-4.05l-3.76-3.94,1.31-1.38c1.13-1.2,2.23-2.37,3.31-3.52,2.4-2.56,4.67-4.98,7.02-7.37,2.05-2.08,2.98-3.64,2.86-4.76-.12-1.09-1.36-2.4-3.69-3.91-1.32-.85-2.79-1.51-4.35-2.21-1.49-.67-3.04-1.36-4.5-2.26-4.32-2.65-6.59-5.42-6.92-8.49-.33-3.04,1.27-6.2,4.87-9.65,4.46-4.27,9.39-8.51,16.4-9.34,4.79-.57,4.65-1.93,4.57-2.74-.23-2.18-1.69-4.95-3.73-7.06-.89-.92-2.63-1.46-4.31-1.98-.74-.23-1.47-.46-2.16-.72-.8-.3-1.64-.54-2.54-.8-1.4-.4-2.84-.81-4.23-1.5-5.42-2.66-8.09-5.11-8.96-8.21-.87-3.12.2-6.68,3.56-11.91,1.08-1.68,2.1-3.47,3.09-5.21,1.44-2.54,2.93-5.17,4.7-7.6,1.69-2.32,4.44-3.78,6.89-4.95,1.66-.8,3.44-1.04,5.16-1.27.41-.05.82-.11,1.22-.17.51-.08,1.03-.14,1.56-.21,3.89-.47,4.96-.93,5.13-3.19.19-2.53-1.56-3.63-5.31-5.39l-.46-.22c-1-.47-2.02-.89-3.1-1.33-2.07-.85-4.22-1.73-6.17-3-1.62-1.06-2.73-2.59-3.79-4.07-.43-.59-.83-1.16-1.26-1.66l-.93-1.12L13.45,0h36.38C183.62,0,321.97,0,458.04.07c1.7,0,3.31.47,5.16,1.02.92.27,1.95.58,3.11.86l2.23.54-.84,2.14c-.41,1.05-.75,2.06-1.08,3.04-.7,2.09-1.35,4.06-2.54,5.79-4.02,5.85-5.58,10.76-4.76,15.02.84,4.37,4.25,8.5,10.44,12.63.35.23.71.47,1.06.7,3.99,2.61,8.51,5.56,8.82,12.61l.05,1.2-1.04.61c-.57.33-1.16.66-1.76.99-1.25.69-2.54,1.4-3.67,2.23-1.09.79-2.2,1.56-3.32,2.34-3.28,2.27-6.38,4.42-8.94,7.09-2.37,2.46-3.44,4.45-3.38,6.26.06,1.85,1.32,3.83,3.95,6.25,8.1,7.41,9.54,15.17,4.42,23.71-.6,1-.93,2.28-1.29,3.64l-.14.55c-2.29,8.6-.51,12.59,7.31,16.4.53.26,1.06.51,1.59.76,4.37,2.05,9.33,4.37,10.95,10.9l.38,1.54-1.41.72c-1.83.94-3.72,1.78-5.55,2.59-4.12,1.83-8.01,3.56-11,6.21-3.43,3.04-6.89,8.15-3.91,15.25l1.17,2.77Zm-448.26-4h442.48c-1.53-6.2.53-12.28,5.87-17.01,3.45-3.06,7.81-5,12.03-6.87,1.27-.56,2.56-1.14,3.83-1.74-1.49-3.55-4.66-5.04-8.27-6.73-.55-.26-1.1-.52-1.65-.78-9.57-4.67-12.21-10.56-9.43-21.03l.14-.53c.39-1.5.83-3.2,1.73-4.68,4.16-6.94,3.06-12.53-3.69-18.71-3.49-3.19-5.15-6.07-5.25-9.07-.09-2.96,1.33-5.87,4.5-9.16,2.84-2.96,6.25-5.32,9.55-7.61,1.09-.76,2.18-1.51,3.24-2.29,1.33-.97,2.73-1.74,4.09-2.49.19-.11.38-.21.57-.32-.63-4.16-3.56-6.07-6.9-8.25-.37-.24-.73-.48-1.09-.72-7.12-4.75-11.09-9.73-12.14-15.2-1.03-5.37.73-11.27,5.39-18.04.87-1.26,1.41-2.89,2.04-4.78.12-.38.25-.75.38-1.14-.4-.12-.78-.23-1.15-.33-1.62-.48-2.91-.86-4.04-.86-136.07-.07-274.41-.06-408.21-.07H15.65l-.16.25c.18.24.35.48.52.72.89,1.24,1.74,2.41,2.74,3.06,1.64,1.07,3.52,1.84,5.51,2.66,1.08.44,2.2.9,3.29,1.42l.45.21c3.38,1.58,8.01,3.75,7.6,9.31-.43,5.87-5.37,6.47-8.64,6.87-.48.06-.96.12-1.43.19-.43.07-.87.13-1.31.18-1.48.2-2.87.38-3.96.91-2.15,1.04-4.3,2.21-5.39,3.71-1.64,2.25-3.01,4.66-4.46,7.22-1.01,1.79-2.06,3.63-3.2,5.4-2.65,4.11-3.59,6.78-3.07,8.67.52,1.86,2.63,3.62,6.86,5.69,1.07.53,2.29.87,3.57,1.24.93.27,1.89.54,2.84.9.62.23,1.29.44,1.95.64,2.06.64,4.4,1.37,6,3.02,2.09,2.16,4.45,5.76,4.84,9.42.43,4.05-2.29,6.45-8.08,7.13-5.78.68-9.97,4.29-14.1,8.26-2.61,2.5-3.84,4.64-3.66,6.34.19,1.72,1.88,3.58,5.03,5.51,1.24.76,2.6,1.37,4.04,2.01,1.63.73,3.32,1.48,4.89,2.5,3.53,2.28,5.22,4.39,5.49,6.83.35,3.14-1.95,5.93-3.98,8-2.32,2.36-4.57,4.76-6.95,7.3-.66.71-1.33,1.42-2.01,2.15l1.13,1.19c1.48,1.55,2.68,2.8,3.88,4.07,7.36,7.79,7.71,11.29,2.07,20.78-.71,1.2-1.27,2.57-1.98,4.3-.05.12-.1.25-.15.37Z"/></g></svg>